%TF.GenerationSoftware,KiCad,Pcbnew,9.0.4*%
%TF.CreationDate,2025-09-30T09:24:18+02:00*%
%TF.ProjectId,left-finished,6c656674-2d66-4696-9e69-736865642e6b,v1.0.0*%
%TF.SameCoordinates,Original*%
%TF.FileFunction,Paste,Bot*%
%TF.FilePolarity,Positive*%
%FSLAX46Y46*%
G04 Gerber Fmt 4.6, Leading zero omitted, Abs format (unit mm)*
G04 Created by KiCad (PCBNEW 9.0.4) date 2025-09-30 09:24:18*
%MOMM*%
%LPD*%
G01*
G04 APERTURE LIST*
%ADD10R,0.900000X0.900000*%
%ADD11R,1.250000X0.900000*%
%ADD12R,2.600000X2.600000*%
%ADD13R,0.900000X1.200000*%
%ADD14R,1.000000X1.550000*%
G04 APERTURE END LIST*
D10*
%TO.C,T1*%
X147900000Y-129700000D03*
X150100000Y-129700000D03*
X147900000Y-122300000D03*
X150100000Y-122300000D03*
D11*
X151075000Y-128250000D03*
X151075000Y-125250000D03*
X151075000Y-123750000D03*
%TD*%
D12*
%TO.C,S17*%
X172725000Y-68050000D03*
X184275000Y-70250000D03*
%TD*%
D13*
%TO.C,D1*%
X100350000Y-117000000D03*
X103650000Y-117000000D03*
%TD*%
%TO.C,D20*%
X195350000Y-98000000D03*
X198650000Y-98000000D03*
%TD*%
D12*
%TO.C,S6*%
X115725000Y-68050000D03*
X127275000Y-70250000D03*
%TD*%
%TO.C,S18*%
X191725000Y-144050000D03*
X203275000Y-146250000D03*
%TD*%
%TO.C,S1*%
X96725000Y-106050000D03*
X108275000Y-108250000D03*
%TD*%
D13*
%TO.C,D19*%
X195350000Y-117000000D03*
X198650000Y-117000000D03*
%TD*%
D12*
%TO.C,S16*%
X172725000Y-87050000D03*
X184275000Y-89250000D03*
%TD*%
D14*
%TO.C,B1*%
X148150000Y-136625000D03*
X148150000Y-131375000D03*
X149850000Y-136625000D03*
X149850000Y-131375000D03*
%TD*%
D12*
%TO.C,S12*%
X153725000Y-87050000D03*
X165275000Y-89250000D03*
%TD*%
D13*
%TO.C,D3*%
X100350000Y-79000000D03*
X103650000Y-79000000D03*
%TD*%
%TO.C,D2*%
X100350000Y-98000000D03*
X103650000Y-98000000D03*
%TD*%
%TO.C,D9*%
X138350000Y-79000000D03*
X141650000Y-79000000D03*
%TD*%
%TO.C,D10*%
X157350000Y-155000000D03*
X160650000Y-155000000D03*
%TD*%
%TO.C,D7*%
X138350000Y-117000000D03*
X141650000Y-117000000D03*
%TD*%
D12*
%TO.C,S7*%
X134725000Y-106050000D03*
X146275000Y-108250000D03*
%TD*%
D13*
%TO.C,D4*%
X119350000Y-117000000D03*
X122650000Y-117000000D03*
%TD*%
%TO.C,D13*%
X157350000Y-79000000D03*
X160650000Y-79000000D03*
%TD*%
%TO.C,D16*%
X176350000Y-98000000D03*
X179650000Y-98000000D03*
%TD*%
%TO.C,D21*%
X195350000Y-79000000D03*
X198650000Y-79000000D03*
%TD*%
%TO.C,D11*%
X157350000Y-117000000D03*
X160650000Y-117000000D03*
%TD*%
%TO.C,D8*%
X138350000Y-98000000D03*
X141650000Y-98000000D03*
%TD*%
D12*
%TO.C,S2*%
X96725000Y-87050000D03*
X108275000Y-89250000D03*
%TD*%
%TO.C,S15*%
X172725000Y-106050000D03*
X184275000Y-108250000D03*
%TD*%
%TO.C,S3*%
X96725000Y-68050000D03*
X108275000Y-70250000D03*
%TD*%
D13*
%TO.C,D18*%
X195350000Y-155000000D03*
X198650000Y-155000000D03*
%TD*%
D12*
%TO.C,S9*%
X134725000Y-68050000D03*
X146275000Y-70250000D03*
%TD*%
D13*
%TO.C,D17*%
X176350000Y-79000000D03*
X179650000Y-79000000D03*
%TD*%
%TO.C,D15*%
X176350000Y-117000000D03*
X179650000Y-117000000D03*
%TD*%
%TO.C,D5*%
X119350000Y-98000000D03*
X122650000Y-98000000D03*
%TD*%
D12*
%TO.C,S8*%
X134725000Y-87050000D03*
X146275000Y-89250000D03*
%TD*%
%TO.C,S10*%
X153725000Y-144050000D03*
X165275000Y-146250000D03*
%TD*%
D13*
%TO.C,D14*%
X176350000Y-155000000D03*
X179650000Y-155000000D03*
%TD*%
D12*
%TO.C,S4*%
X115725000Y-106050000D03*
X127275000Y-108250000D03*
%TD*%
%TO.C,S13*%
X153725000Y-68050000D03*
X165275000Y-70250000D03*
%TD*%
D13*
%TO.C,D6*%
X119350000Y-79000000D03*
X122650000Y-79000000D03*
%TD*%
D12*
%TO.C,S21*%
X191725000Y-68050000D03*
X203275000Y-70250000D03*
%TD*%
%TO.C,S20*%
X191725000Y-87050000D03*
X203275000Y-89250000D03*
%TD*%
D13*
%TO.C,D12*%
X157350000Y-98000000D03*
X160650000Y-98000000D03*
%TD*%
D12*
%TO.C,S14*%
X172725000Y-144050000D03*
X184275000Y-146250000D03*
%TD*%
%TO.C,S11*%
X153725000Y-106050000D03*
X165275000Y-108250000D03*
%TD*%
%TO.C,S19*%
X191725000Y-106050000D03*
X203275000Y-108250000D03*
%TD*%
%TO.C,S5*%
X115725000Y-87050000D03*
X127275000Y-89250000D03*
%TD*%
M02*
