%TF.GenerationSoftware,KiCad,Pcbnew,9.0.4*%
%TF.CreationDate,2025-09-30T09:24:18+02:00*%
%TF.ProjectId,left-finished,6c656674-2d66-4696-9e69-736865642e6b,v1.0.0*%
%TF.SameCoordinates,Original*%
%TF.FileFunction,Copper,L1,Top*%
%TF.FilePolarity,Positive*%
%FSLAX46Y46*%
G04 Gerber Fmt 4.6, Leading zero omitted, Abs format (unit mm)*
G04 Created by KiCad (PCBNEW 9.0.4) date 2025-09-30 09:24:18*
%MOMM*%
%LPD*%
G01*
G04 APERTURE LIST*
%TA.AperFunction,WasherPad*%
%ADD10C,1.000000*%
%TD*%
%TA.AperFunction,ComponentPad*%
%ADD11R,1.778000X1.778000*%
%TD*%
%TA.AperFunction,SMDPad,CuDef*%
%ADD12R,0.900000X1.200000*%
%TD*%
%TA.AperFunction,ComponentPad*%
%ADD13C,1.905000*%
%TD*%
%TA.AperFunction,ComponentPad*%
%ADD14R,1.700000X1.200000*%
%TD*%
%TA.AperFunction,ComponentPad*%
%ADD15O,1.700000X1.200000*%
%TD*%
%TA.AperFunction,ComponentPad*%
%ADD16C,1.752600*%
%TD*%
%TA.AperFunction,Conductor*%
%ADD17C,0.250000*%
%TD*%
G04 APERTURE END LIST*
D10*
%TO.P,T1,*%
%TO.N,*%
X149000000Y-127500000D03*
X149000000Y-124500000D03*
%TD*%
D11*
%TO.P,D1,1*%
%TO.N,P011*%
X98190000Y-117000000D03*
D12*
X100350000Y-117000000D03*
%TO.P,D1,2*%
%TO.N,outer_bottom*%
X103650000Y-117000000D03*
D13*
X105810000Y-117000000D03*
%TD*%
D11*
%TO.P,D20,1*%
%TO.N,P100*%
X193190000Y-98000000D03*
D12*
X195350000Y-98000000D03*
%TO.P,D20,2*%
%TO.N,inner_home*%
X198650000Y-98000000D03*
D13*
X200810000Y-98000000D03*
%TD*%
D11*
%TO.P,D19,1*%
%TO.N,P011*%
X193190000Y-117000000D03*
D12*
X195350000Y-117000000D03*
%TO.P,D19,2*%
%TO.N,inner_bottom*%
X198650000Y-117000000D03*
D13*
X200810000Y-117000000D03*
%TD*%
D11*
%TO.P,D3,1*%
%TO.N,P024*%
X98190000Y-79000000D03*
D12*
X100350000Y-79000000D03*
%TO.P,D3,2*%
%TO.N,outer_top*%
X103650000Y-79000000D03*
D13*
X105810000Y-79000000D03*
%TD*%
D11*
%TO.P,D2,1*%
%TO.N,P100*%
X98190000Y-98000000D03*
D12*
X100350000Y-98000000D03*
%TO.P,D2,2*%
%TO.N,outer_home*%
X103650000Y-98000000D03*
D13*
X105810000Y-98000000D03*
%TD*%
D11*
%TO.P,D9,1*%
%TO.N,P024*%
X136190000Y-79000000D03*
D12*
X138350000Y-79000000D03*
%TO.P,D9,2*%
%TO.N,ring_top*%
X141650000Y-79000000D03*
D13*
X143810000Y-79000000D03*
%TD*%
D11*
%TO.P,D10,1*%
%TO.N,P010*%
X155190000Y-155000000D03*
D12*
X157350000Y-155000000D03*
%TO.P,D10,2*%
%TO.N,middle_thumb*%
X160650000Y-155000000D03*
D13*
X162810000Y-155000000D03*
%TD*%
D11*
%TO.P,D7,1*%
%TO.N,P011*%
X136190000Y-117000000D03*
D12*
X138350000Y-117000000D03*
%TO.P,D7,2*%
%TO.N,ring_bottom*%
X141650000Y-117000000D03*
D13*
X143810000Y-117000000D03*
%TD*%
D11*
%TO.P,D4,1*%
%TO.N,P011*%
X117190000Y-117000000D03*
D12*
X119350000Y-117000000D03*
%TO.P,D4,2*%
%TO.N,pinky_bottom*%
X122650000Y-117000000D03*
D13*
X124810000Y-117000000D03*
%TD*%
D11*
%TO.P,D13,1*%
%TO.N,P024*%
X155190000Y-79000000D03*
D12*
X157350000Y-79000000D03*
%TO.P,D13,2*%
%TO.N,middle_top*%
X160650000Y-79000000D03*
D13*
X162810000Y-79000000D03*
%TD*%
D11*
%TO.P,D16,1*%
%TO.N,P100*%
X174190000Y-98000000D03*
D12*
X176350000Y-98000000D03*
%TO.P,D16,2*%
%TO.N,index_home*%
X179650000Y-98000000D03*
D13*
X181810000Y-98000000D03*
%TD*%
D14*
%TO.P,JST1,1*%
%TO.N,pos*%
X162000000Y-126000000D03*
D15*
%TO.P,JST1,2*%
%TO.N,GND*%
X162000000Y-128000000D03*
%TD*%
D11*
%TO.P,D21,1*%
%TO.N,P024*%
X193190000Y-79000000D03*
D12*
X195350000Y-79000000D03*
%TO.P,D21,2*%
%TO.N,inner_top*%
X198650000Y-79000000D03*
D13*
X200810000Y-79000000D03*
%TD*%
D11*
%TO.P,D11,1*%
%TO.N,P011*%
X155190000Y-117000000D03*
D12*
X157350000Y-117000000D03*
%TO.P,D11,2*%
%TO.N,middle_bottom*%
X160650000Y-117000000D03*
D13*
X162810000Y-117000000D03*
%TD*%
D11*
%TO.P,D8,1*%
%TO.N,P100*%
X136190000Y-98000000D03*
D12*
X138350000Y-98000000D03*
%TO.P,D8,2*%
%TO.N,ring_home*%
X141650000Y-98000000D03*
D13*
X143810000Y-98000000D03*
%TD*%
D11*
%TO.P,D18,1*%
%TO.N,P010*%
X193190000Y-155000000D03*
D12*
X195350000Y-155000000D03*
%TO.P,D18,2*%
%TO.N,inner_thumb*%
X198650000Y-155000000D03*
D13*
X200810000Y-155000000D03*
%TD*%
D11*
%TO.P,D17,1*%
%TO.N,P024*%
X174190000Y-79000000D03*
D12*
X176350000Y-79000000D03*
%TO.P,D17,2*%
%TO.N,index_top*%
X179650000Y-79000000D03*
D13*
X181810000Y-79000000D03*
%TD*%
D11*
%TO.P,D15,1*%
%TO.N,P011*%
X174190000Y-117000000D03*
D12*
X176350000Y-117000000D03*
%TO.P,D15,2*%
%TO.N,index_bottom*%
X179650000Y-117000000D03*
D13*
X181810000Y-117000000D03*
%TD*%
D11*
%TO.P,D5,1*%
%TO.N,P100*%
X117190000Y-98000000D03*
D12*
X119350000Y-98000000D03*
%TO.P,D5,2*%
%TO.N,pinky_home*%
X122650000Y-98000000D03*
D13*
X124810000Y-98000000D03*
%TD*%
D11*
%TO.P,D14,1*%
%TO.N,P010*%
X174190000Y-155000000D03*
D12*
X176350000Y-155000000D03*
%TO.P,D14,2*%
%TO.N,index_thumb*%
X179650000Y-155000000D03*
D13*
X181810000Y-155000000D03*
%TD*%
D16*
%TO.P,MCU1,1*%
%TO.N,P006*%
X199970000Y-124380000D03*
%TO.P,MCU1,2*%
%TO.N,P008*%
X197430000Y-124380000D03*
%TO.P,MCU1,3*%
%TO.N,GND*%
X194890000Y-124380000D03*
%TO.P,MCU1,4*%
X192350000Y-124380000D03*
%TO.P,MCU1,5*%
%TO.N,P017*%
X189810000Y-124380000D03*
%TO.P,MCU1,6*%
%TO.N,P020*%
X187270000Y-124380000D03*
%TO.P,MCU1,7*%
%TO.N,P022*%
X184730000Y-124380000D03*
%TO.P,MCU1,8*%
%TO.N,P024*%
X182190000Y-124380000D03*
%TO.P,MCU1,9*%
%TO.N,P100*%
X179650000Y-124380000D03*
%TO.P,MCU1,10*%
%TO.N,P011*%
X177110000Y-124380000D03*
%TO.P,MCU1,11*%
%TO.N,P104*%
X174570000Y-124380000D03*
%TO.P,MCU1,12*%
%TO.N,P106*%
X172030000Y-124380000D03*
%TO.P,MCU1,13*%
%TO.N,P009*%
X172030000Y-139620000D03*
%TO.P,MCU1,14*%
%TO.N,P010*%
X174570000Y-139620000D03*
%TO.P,MCU1,15*%
%TO.N,P111*%
X177110000Y-139620000D03*
%TO.P,MCU1,16*%
%TO.N,P113*%
X179650000Y-139620000D03*
%TO.P,MCU1,17*%
%TO.N,P115*%
X182190000Y-139620000D03*
%TO.P,MCU1,18*%
%TO.N,P002*%
X184730000Y-139620000D03*
%TO.P,MCU1,19*%
%TO.N,P029*%
X187270000Y-139620000D03*
%TO.P,MCU1,20*%
%TO.N,P031*%
X189810000Y-139620000D03*
%TO.P,MCU1,21*%
%TO.N,VCC*%
X192350000Y-139620000D03*
%TO.P,MCU1,22*%
%TO.N,RST*%
X194890000Y-139620000D03*
%TO.P,MCU1,23*%
%TO.N,GND*%
X197430000Y-139620000D03*
%TO.P,MCU1,24*%
%TO.N,RAW*%
X199970000Y-139620000D03*
%TD*%
D11*
%TO.P,D6,1*%
%TO.N,P024*%
X117190000Y-79000000D03*
D12*
X119350000Y-79000000D03*
%TO.P,D6,2*%
%TO.N,pinky_top*%
X122650000Y-79000000D03*
D13*
X124810000Y-79000000D03*
%TD*%
D11*
%TO.P,D12,1*%
%TO.N,P100*%
X155190000Y-98000000D03*
D12*
X157350000Y-98000000D03*
%TO.P,D12,2*%
%TO.N,middle_home*%
X160650000Y-98000000D03*
D13*
X162810000Y-98000000D03*
%TD*%
D17*
%TO.N,outer_bottom*%
X105810000Y-117000000D02*
X103650000Y-117000000D01*
%TO.N,outer_home*%
X105810000Y-98000000D02*
X103650000Y-98000000D01*
%TO.N,outer_top*%
X105810000Y-79000000D02*
X103650000Y-79000000D01*
%TO.N,pinky_bottom*%
X122650000Y-117000000D02*
X124810000Y-117000000D01*
%TO.N,pinky_home*%
X124810000Y-98000000D02*
X122650000Y-98000000D01*
%TO.N,pinky_top*%
X124810000Y-79000000D02*
X122650000Y-79000000D01*
%TO.N,ring_bottom*%
X141650000Y-117000000D02*
X143810000Y-117000000D01*
%TO.N,ring_home*%
X143810000Y-98000000D02*
X141650000Y-98000000D01*
%TO.N,ring_top*%
X143810000Y-79000000D02*
X141650000Y-79000000D01*
%TO.N,middle_thumb*%
X160650000Y-155000000D02*
X162810000Y-155000000D01*
%TO.N,middle_bottom*%
X160650000Y-117000000D02*
X162810000Y-117000000D01*
%TO.N,middle_home*%
X162810000Y-98000000D02*
X160650000Y-98000000D01*
%TO.N,middle_top*%
X162810000Y-79000000D02*
X160650000Y-79000000D01*
%TO.N,index_thumb*%
X179650000Y-155000000D02*
X181810000Y-155000000D01*
%TO.N,index_bottom*%
X179650000Y-117000000D02*
X181810000Y-117000000D01*
%TO.N,index_home*%
X181810000Y-98000000D02*
X179650000Y-98000000D01*
%TO.N,index_top*%
X181810000Y-79000000D02*
X179650000Y-79000000D01*
%TO.N,inner_thumb*%
X198650000Y-155000000D02*
X200810000Y-155000000D01*
%TO.N,inner_bottom*%
X198650000Y-117000000D02*
X200810000Y-117000000D01*
%TO.N,inner_home*%
X200810000Y-98000000D02*
X198650000Y-98000000D01*
%TO.N,inner_top*%
X198650000Y-79000000D02*
X200810000Y-79000000D01*
%TO.N,P011*%
X99468500Y-118278500D02*
X115911500Y-118278500D01*
X139850000Y-118500000D02*
X153690000Y-118500000D01*
X177628500Y-118278500D02*
X191911500Y-118278500D01*
X120628500Y-118278500D02*
X134911500Y-118278500D01*
X158628500Y-118278500D02*
X172911500Y-118278500D01*
X136190000Y-117000000D02*
X138350000Y-117000000D01*
X195350000Y-119248000D02*
X195000000Y-119598000D01*
X193190000Y-117000000D02*
X195350000Y-117000000D01*
X195000000Y-119598000D02*
X181892000Y-119598000D01*
X100350000Y-117000000D02*
X98190000Y-117000000D01*
X153690000Y-118500000D02*
X155190000Y-117000000D01*
X115911500Y-118278500D02*
X117190000Y-117000000D01*
X172911500Y-118278500D02*
X174190000Y-117000000D01*
X157350000Y-117000000D02*
X158628500Y-118278500D01*
X98190000Y-117000000D02*
X99468500Y-118278500D01*
X191911500Y-118278500D02*
X193190000Y-117000000D01*
X195350000Y-117000000D02*
X195350000Y-119248000D01*
X181892000Y-119598000D02*
X177110000Y-124380000D01*
X174190000Y-117000000D02*
X176350000Y-117000000D01*
X119350000Y-117000000D02*
X120628500Y-118278500D01*
X155190000Y-117000000D02*
X157350000Y-117000000D01*
X138350000Y-117000000D02*
X139850000Y-118500000D01*
X176350000Y-117000000D02*
X177628500Y-118278500D01*
X117190000Y-117000000D02*
X119350000Y-117000000D01*
X134911500Y-118278500D02*
X136190000Y-117000000D01*
%TO.N,P100*%
X101628500Y-99278500D02*
X100350000Y-98000000D01*
X177628500Y-99278500D02*
X176350000Y-98000000D01*
X115911500Y-99278500D02*
X101628500Y-99278500D01*
X138350000Y-98000000D02*
X136190000Y-98000000D01*
X191911500Y-99278500D02*
X177628500Y-99278500D01*
X155190000Y-98000000D02*
X153690000Y-99500000D01*
X139850000Y-99500000D02*
X138350000Y-98000000D01*
X100350000Y-98000000D02*
X98190000Y-98000000D01*
X195350000Y-98000000D02*
X197850000Y-100500000D01*
X197850000Y-100500000D02*
X203549000Y-100500000D01*
X153690000Y-99500000D02*
X139850000Y-99500000D01*
X203549000Y-100500000D02*
X203549000Y-118813190D01*
X203549000Y-118813190D02*
X202313190Y-120049000D01*
X136190000Y-98000000D02*
X134911500Y-99278500D01*
X157350000Y-98000000D02*
X158628500Y-99278500D01*
X172911500Y-99278500D02*
X174190000Y-98000000D01*
X176350000Y-98000000D02*
X174190000Y-98000000D01*
X193190000Y-98000000D02*
X191911500Y-99278500D01*
X195350000Y-98000000D02*
X193190000Y-98000000D01*
X202313190Y-120049000D02*
X183981000Y-120049000D01*
X117190000Y-98000000D02*
X115911500Y-99278500D01*
X134911500Y-99278500D02*
X120628500Y-99278500D01*
X119350000Y-98000000D02*
X117190000Y-98000000D01*
X158628500Y-99278500D02*
X172911500Y-99278500D01*
X183981000Y-120049000D02*
X179650000Y-124380000D01*
X120628500Y-99278500D02*
X119350000Y-98000000D01*
X157350000Y-98000000D02*
X155190000Y-98000000D01*
%TO.N,P024*%
X204000000Y-82500000D02*
X204000000Y-119000000D01*
X153911500Y-80278500D02*
X155190000Y-79000000D01*
X195350000Y-79000000D02*
X198850000Y-82500000D01*
X174190000Y-79000000D02*
X172911500Y-80278500D01*
X177628500Y-80278500D02*
X176350000Y-79000000D01*
X186070000Y-120500000D02*
X182190000Y-124380000D01*
X100350000Y-79000000D02*
X101850000Y-80500000D01*
X157350000Y-79000000D02*
X155190000Y-79000000D01*
X120628500Y-80278500D02*
X119350000Y-79000000D01*
X198850000Y-82500000D02*
X204000000Y-82500000D01*
X202500000Y-120500000D02*
X186070000Y-120500000D01*
X191911500Y-80278500D02*
X177628500Y-80278500D01*
X158628500Y-80278500D02*
X157350000Y-79000000D01*
X134911500Y-80278500D02*
X120628500Y-80278500D01*
X136190000Y-79000000D02*
X134911500Y-80278500D01*
X136190000Y-79000000D02*
X137468500Y-80278500D01*
X138350000Y-79000000D02*
X136190000Y-79000000D01*
X204000000Y-119000000D02*
X202500000Y-120500000D01*
X195350000Y-79000000D02*
X193190000Y-79000000D01*
X176350000Y-79000000D02*
X174190000Y-79000000D01*
X115690000Y-80500000D02*
X117190000Y-79000000D01*
X119350000Y-79000000D02*
X117190000Y-79000000D01*
X193190000Y-79000000D02*
X191911500Y-80278500D01*
X100350000Y-79000000D02*
X98190000Y-79000000D01*
X172911500Y-80278500D02*
X158628500Y-80278500D01*
X137468500Y-80278500D02*
X153911500Y-80278500D01*
X101850000Y-80500000D02*
X115690000Y-80500000D01*
%TO.N,P010*%
X158628500Y-156278500D02*
X157350000Y-155000000D01*
X166064000Y-148126000D02*
X174570000Y-139620000D01*
X162064000Y-148126000D02*
X166064000Y-148126000D01*
X193190000Y-155000000D02*
X191911500Y-156278500D01*
X157350000Y-155000000D02*
X155190000Y-155000000D01*
X176350000Y-155000000D02*
X174190000Y-155000000D01*
X177628500Y-156278500D02*
X176350000Y-155000000D01*
X195350000Y-155000000D02*
X193190000Y-155000000D01*
X155190000Y-155000000D02*
X162064000Y-148126000D01*
X174190000Y-155000000D02*
X172911500Y-156278500D01*
X172911500Y-156278500D02*
X158628500Y-156278500D01*
X191911500Y-156278500D02*
X177628500Y-156278500D01*
%TO.N,GND*%
X192350000Y-124380000D02*
X188730000Y-128000000D01*
X194890000Y-124380000D02*
X192350000Y-124380000D01*
X197430000Y-126920000D02*
X194890000Y-124380000D01*
X162500000Y-129500000D02*
X187310000Y-129500000D01*
X162000000Y-129000000D02*
X162500000Y-129500000D01*
X187310000Y-129500000D02*
X197430000Y-139620000D01*
X197430000Y-139620000D02*
X197430000Y-126920000D01*
X188730000Y-128000000D02*
X162000000Y-128000000D01*
X162000000Y-128000000D02*
X162000000Y-129000000D01*
%TD*%
M02*
