%TF.GenerationSoftware,KiCad,Pcbnew,9.0.4*%
%TF.CreationDate,2025-09-30T09:24:18+02:00*%
%TF.ProjectId,left-finished,6c656674-2d66-4696-9e69-736865642e6b,v1.0.0*%
%TF.SameCoordinates,Original*%
%TF.FileFunction,Soldermask,Top*%
%TF.FilePolarity,Negative*%
%FSLAX46Y46*%
G04 Gerber Fmt 4.6, Leading zero omitted, Abs format (unit mm)*
G04 Created by KiCad (PCBNEW 9.0.4) date 2025-09-30 09:24:18*
%MOMM*%
%LPD*%
G01*
G04 APERTURE LIST*
G04 Aperture macros list*
%AMRoundRect*
0 Rectangle with rounded corners*
0 $1 Rounding radius*
0 $2 $3 $4 $5 $6 $7 $8 $9 X,Y pos of 4 corners*
0 Add a 4 corners polygon primitive as box body*
4,1,4,$2,$3,$4,$5,$6,$7,$8,$9,$2,$3,0*
0 Add four circle primitives for the rounded corners*
1,1,$1+$1,$2,$3*
1,1,$1+$1,$4,$5*
1,1,$1+$1,$6,$7*
1,1,$1+$1,$8,$9*
0 Add four rect primitives between the rounded corners*
20,1,$1+$1,$2,$3,$4,$5,0*
20,1,$1+$1,$4,$5,$6,$7,0*
20,1,$1+$1,$6,$7,$8,$9,0*
20,1,$1+$1,$8,$9,$2,$3,0*%
G04 Aperture macros list end*
%ADD10C,1.100000*%
%ADD11C,1.801800*%
%ADD12C,3.100000*%
%ADD13C,3.529000*%
%ADD14RoundRect,0.050000X-0.889000X-0.889000X0.889000X-0.889000X0.889000X0.889000X-0.889000X0.889000X0*%
%ADD15RoundRect,0.050000X-0.450000X-0.600000X0.450000X-0.600000X0.450000X0.600000X-0.450000X0.600000X0*%
%ADD16C,2.005000*%
%ADD17C,0.850000*%
%ADD18C,4.100000*%
%ADD19RoundRect,0.050000X-0.850000X0.600000X-0.850000X-0.600000X0.850000X-0.600000X0.850000X0.600000X0*%
%ADD20O,1.800000X1.300000*%
%ADD21C,1.852600*%
G04 APERTURE END LIST*
D10*
%TO.C,T1*%
X149000000Y-127500000D03*
X149000000Y-124500000D03*
%TD*%
D11*
%TO.C,S17*%
X170500000Y-74000000D03*
D12*
X176000000Y-68050000D03*
D13*
X176000000Y-74000000D03*
D12*
X181000000Y-70250000D03*
D11*
X181500000Y-74000000D03*
%TD*%
D14*
%TO.C,D1*%
X98190000Y-117000000D03*
D15*
X100350000Y-117000000D03*
X103650000Y-117000000D03*
D16*
X105810000Y-117000000D03*
%TD*%
D14*
%TO.C,D20*%
X193190000Y-98000000D03*
D15*
X195350000Y-98000000D03*
X198650000Y-98000000D03*
D16*
X200810000Y-98000000D03*
%TD*%
D11*
%TO.C,S6*%
X113500000Y-74000000D03*
D12*
X119000000Y-68050000D03*
D13*
X119000000Y-74000000D03*
D12*
X124000000Y-70250000D03*
D11*
X124500000Y-74000000D03*
%TD*%
%TO.C,S18*%
X189500000Y-150000000D03*
D12*
X195000000Y-144050000D03*
D13*
X195000000Y-150000000D03*
D12*
X200000000Y-146250000D03*
D11*
X200500000Y-150000000D03*
%TD*%
%TO.C,S1*%
X94500000Y-112000000D03*
D12*
X100000000Y-106050000D03*
D13*
X100000000Y-112000000D03*
D12*
X105000000Y-108250000D03*
D11*
X105500000Y-112000000D03*
%TD*%
D14*
%TO.C,D19*%
X193190000Y-117000000D03*
D15*
X195350000Y-117000000D03*
X198650000Y-117000000D03*
D16*
X200810000Y-117000000D03*
%TD*%
D11*
%TO.C,S16*%
X170500000Y-93000000D03*
D12*
X176000000Y-87050000D03*
D13*
X176000000Y-93000000D03*
D12*
X181000000Y-89250000D03*
D11*
X181500000Y-93000000D03*
%TD*%
D17*
%TO.C,B1*%
X147625000Y-134000000D03*
X150375000Y-134000000D03*
%TD*%
D11*
%TO.C,S12*%
X151500000Y-93000000D03*
D12*
X157000000Y-87050000D03*
D13*
X157000000Y-93000000D03*
D12*
X162000000Y-89250000D03*
D11*
X162500000Y-93000000D03*
%TD*%
D14*
%TO.C,D3*%
X98190000Y-79000000D03*
D15*
X100350000Y-79000000D03*
X103650000Y-79000000D03*
D16*
X105810000Y-79000000D03*
%TD*%
D18*
%TO.C,*%
X157000000Y-135000000D03*
%TD*%
D14*
%TO.C,D2*%
X98190000Y-98000000D03*
D15*
X100350000Y-98000000D03*
X103650000Y-98000000D03*
D16*
X105810000Y-98000000D03*
%TD*%
D14*
%TO.C,D9*%
X136190000Y-79000000D03*
D15*
X138350000Y-79000000D03*
X141650000Y-79000000D03*
D16*
X143810000Y-79000000D03*
%TD*%
D14*
%TO.C,D10*%
X155190000Y-155000000D03*
D15*
X157350000Y-155000000D03*
X160650000Y-155000000D03*
D16*
X162810000Y-155000000D03*
%TD*%
D14*
%TO.C,D7*%
X136190000Y-117000000D03*
D15*
X138350000Y-117000000D03*
X141650000Y-117000000D03*
D16*
X143810000Y-117000000D03*
%TD*%
D11*
%TO.C,S7*%
X132500000Y-112000000D03*
D12*
X138000000Y-106050000D03*
D13*
X138000000Y-112000000D03*
D12*
X143000000Y-108250000D03*
D11*
X143500000Y-112000000D03*
%TD*%
D14*
%TO.C,D4*%
X117190000Y-117000000D03*
D15*
X119350000Y-117000000D03*
X122650000Y-117000000D03*
D16*
X124810000Y-117000000D03*
%TD*%
D14*
%TO.C,D13*%
X155190000Y-79000000D03*
D15*
X157350000Y-79000000D03*
X160650000Y-79000000D03*
D16*
X162810000Y-79000000D03*
%TD*%
D14*
%TO.C,D16*%
X174190000Y-98000000D03*
D15*
X176350000Y-98000000D03*
X179650000Y-98000000D03*
D16*
X181810000Y-98000000D03*
%TD*%
D19*
%TO.C,JST1*%
X162000000Y-126000000D03*
D20*
X162000000Y-128000000D03*
%TD*%
D14*
%TO.C,D21*%
X193190000Y-79000000D03*
D15*
X195350000Y-79000000D03*
X198650000Y-79000000D03*
D16*
X200810000Y-79000000D03*
%TD*%
D14*
%TO.C,D11*%
X155190000Y-117000000D03*
D15*
X157350000Y-117000000D03*
X160650000Y-117000000D03*
D16*
X162810000Y-117000000D03*
%TD*%
D14*
%TO.C,D8*%
X136190000Y-98000000D03*
D15*
X138350000Y-98000000D03*
X141650000Y-98000000D03*
D16*
X143810000Y-98000000D03*
%TD*%
D11*
%TO.C,S2*%
X94500000Y-93000000D03*
D12*
X100000000Y-87050000D03*
D13*
X100000000Y-93000000D03*
D12*
X105000000Y-89250000D03*
D11*
X105500000Y-93000000D03*
%TD*%
%TO.C,S15*%
X170500000Y-112000000D03*
D12*
X176000000Y-106050000D03*
D13*
X176000000Y-112000000D03*
D12*
X181000000Y-108250000D03*
D11*
X181500000Y-112000000D03*
%TD*%
%TO.C,S3*%
X94500000Y-74000000D03*
D12*
X100000000Y-68050000D03*
D13*
X100000000Y-74000000D03*
D12*
X105000000Y-70250000D03*
D11*
X105500000Y-74000000D03*
%TD*%
D14*
%TO.C,D18*%
X193190000Y-155000000D03*
D15*
X195350000Y-155000000D03*
X198650000Y-155000000D03*
D16*
X200810000Y-155000000D03*
%TD*%
D11*
%TO.C,S9*%
X132500000Y-74000000D03*
D12*
X138000000Y-68050000D03*
D13*
X138000000Y-74000000D03*
D12*
X143000000Y-70250000D03*
D11*
X143500000Y-74000000D03*
%TD*%
D14*
%TO.C,D17*%
X174190000Y-79000000D03*
D15*
X176350000Y-79000000D03*
X179650000Y-79000000D03*
D16*
X181810000Y-79000000D03*
%TD*%
D14*
%TO.C,D15*%
X174190000Y-117000000D03*
D15*
X176350000Y-117000000D03*
X179650000Y-117000000D03*
D16*
X181810000Y-117000000D03*
%TD*%
D14*
%TO.C,D5*%
X117190000Y-98000000D03*
D15*
X119350000Y-98000000D03*
X122650000Y-98000000D03*
D16*
X124810000Y-98000000D03*
%TD*%
D11*
%TO.C,S8*%
X132500000Y-93000000D03*
D12*
X138000000Y-87050000D03*
D13*
X138000000Y-93000000D03*
D12*
X143000000Y-89250000D03*
D11*
X143500000Y-93000000D03*
%TD*%
%TO.C,S10*%
X151500000Y-150000000D03*
D12*
X157000000Y-144050000D03*
D13*
X157000000Y-150000000D03*
D12*
X162000000Y-146250000D03*
D11*
X162500000Y-150000000D03*
%TD*%
D14*
%TO.C,D14*%
X174190000Y-155000000D03*
D15*
X176350000Y-155000000D03*
X179650000Y-155000000D03*
D16*
X181810000Y-155000000D03*
%TD*%
D11*
%TO.C,S4*%
X113500000Y-112000000D03*
D12*
X119000000Y-106050000D03*
D13*
X119000000Y-112000000D03*
D12*
X124000000Y-108250000D03*
D11*
X124500000Y-112000000D03*
%TD*%
D21*
%TO.C,MCU1*%
X199970000Y-124380000D03*
X197430000Y-124380000D03*
X194890000Y-124380000D03*
X192350000Y-124380000D03*
X189810000Y-124380000D03*
X187270000Y-124380000D03*
X184730000Y-124380000D03*
X182190000Y-124380000D03*
X179650000Y-124380000D03*
X177110000Y-124380000D03*
X174570000Y-124380000D03*
X172030000Y-124380000D03*
X172030000Y-139620000D03*
X174570000Y-139620000D03*
X177110000Y-139620000D03*
X179650000Y-139620000D03*
X182190000Y-139620000D03*
X184730000Y-139620000D03*
X187270000Y-139620000D03*
X189810000Y-139620000D03*
X192350000Y-139620000D03*
X194890000Y-139620000D03*
X197430000Y-139620000D03*
X199970000Y-139620000D03*
%TD*%
D11*
%TO.C,S13*%
X151500000Y-74000000D03*
D12*
X157000000Y-68050000D03*
D13*
X157000000Y-74000000D03*
D12*
X162000000Y-70250000D03*
D11*
X162500000Y-74000000D03*
%TD*%
D14*
%TO.C,D6*%
X117190000Y-79000000D03*
D15*
X119350000Y-79000000D03*
X122650000Y-79000000D03*
D16*
X124810000Y-79000000D03*
%TD*%
D11*
%TO.C,S21*%
X189500000Y-74000000D03*
D12*
X195000000Y-68050000D03*
D13*
X195000000Y-74000000D03*
D12*
X200000000Y-70250000D03*
D11*
X200500000Y-74000000D03*
%TD*%
%TO.C,S20*%
X189500000Y-93000000D03*
D12*
X195000000Y-87050000D03*
D13*
X195000000Y-93000000D03*
D12*
X200000000Y-89250000D03*
D11*
X200500000Y-93000000D03*
%TD*%
D14*
%TO.C,D12*%
X155190000Y-98000000D03*
D15*
X157350000Y-98000000D03*
X160650000Y-98000000D03*
D16*
X162810000Y-98000000D03*
%TD*%
D11*
%TO.C,S14*%
X170500000Y-150000000D03*
D12*
X176000000Y-144050000D03*
D13*
X176000000Y-150000000D03*
D12*
X181000000Y-146250000D03*
D11*
X181500000Y-150000000D03*
%TD*%
%TO.C,S11*%
X151500000Y-112000000D03*
D12*
X157000000Y-106050000D03*
D13*
X157000000Y-112000000D03*
D12*
X162000000Y-108250000D03*
D11*
X162500000Y-112000000D03*
%TD*%
%TO.C,S19*%
X189500000Y-112000000D03*
D12*
X195000000Y-106050000D03*
D13*
X195000000Y-112000000D03*
D12*
X200000000Y-108250000D03*
D11*
X200500000Y-112000000D03*
%TD*%
%TO.C,S5*%
X113500000Y-93000000D03*
D12*
X119000000Y-87050000D03*
D13*
X119000000Y-93000000D03*
D12*
X124000000Y-89250000D03*
D11*
X124500000Y-93000000D03*
%TD*%
M02*
