%TF.GenerationSoftware,KiCad,Pcbnew,9.0.4*%
%TF.CreationDate,2025-09-30T09:24:18+02:00*%
%TF.ProjectId,left-finished,6c656674-2d66-4696-9e69-736865642e6b,v1.0.0*%
%TF.SameCoordinates,Original*%
%TF.FileFunction,Copper,L2,Bot*%
%TF.FilePolarity,Positive*%
%FSLAX46Y46*%
G04 Gerber Fmt 4.6, Leading zero omitted, Abs format (unit mm)*
G04 Created by KiCad (PCBNEW 9.0.4) date 2025-09-30 09:24:18*
%MOMM*%
%LPD*%
G01*
G04 APERTURE LIST*
%TA.AperFunction,SMDPad,CuDef*%
%ADD10R,0.900000X0.900000*%
%TD*%
%TA.AperFunction,WasherPad*%
%ADD11C,1.000000*%
%TD*%
%TA.AperFunction,SMDPad,CuDef*%
%ADD12R,1.250000X0.900000*%
%TD*%
%TA.AperFunction,SMDPad,CuDef*%
%ADD13R,2.600000X2.600000*%
%TD*%
%TA.AperFunction,ComponentPad*%
%ADD14R,1.778000X1.778000*%
%TD*%
%TA.AperFunction,SMDPad,CuDef*%
%ADD15R,0.900000X1.200000*%
%TD*%
%TA.AperFunction,ComponentPad*%
%ADD16C,1.905000*%
%TD*%
%TA.AperFunction,SMDPad,CuDef*%
%ADD17R,1.000000X1.550000*%
%TD*%
%TA.AperFunction,ComponentPad*%
%ADD18R,1.700000X1.200000*%
%TD*%
%TA.AperFunction,ComponentPad*%
%ADD19O,1.700000X1.200000*%
%TD*%
%TA.AperFunction,ComponentPad*%
%ADD20C,1.752600*%
%TD*%
%TA.AperFunction,Conductor*%
%ADD21C,0.250000*%
%TD*%
G04 APERTURE END LIST*
D10*
%TO.P,T1,*%
%TO.N,*%
X147900000Y-129700000D03*
X150100000Y-129700000D03*
D11*
X149000000Y-127500000D03*
X149000000Y-124500000D03*
D10*
X147900000Y-122300000D03*
X150100000Y-122300000D03*
D12*
%TO.P,T1,1*%
%TO.N,pos*%
X151075000Y-128250000D03*
%TO.P,T1,2*%
%TO.N,RAW*%
X151075000Y-125250000D03*
%TO.P,T1,3*%
%TO.N,N/C*%
X151075000Y-123750000D03*
%TD*%
D13*
%TO.P,S17,1*%
%TO.N,P113*%
X172725000Y-68050000D03*
%TO.P,S17,2*%
%TO.N,index_top*%
X184275000Y-70250000D03*
%TD*%
D14*
%TO.P,D1,1*%
%TO.N,P011*%
X98190000Y-117000000D03*
D15*
X100350000Y-117000000D03*
%TO.P,D1,2*%
%TO.N,outer_bottom*%
X103650000Y-117000000D03*
D16*
X105810000Y-117000000D03*
%TD*%
D14*
%TO.P,D20,1*%
%TO.N,P100*%
X193190000Y-98000000D03*
D15*
X195350000Y-98000000D03*
%TO.P,D20,2*%
%TO.N,inner_home*%
X198650000Y-98000000D03*
D16*
X200810000Y-98000000D03*
%TD*%
D13*
%TO.P,S6,1*%
%TO.N,P020*%
X115725000Y-68050000D03*
%TO.P,S6,2*%
%TO.N,pinky_top*%
X127275000Y-70250000D03*
%TD*%
%TO.P,S18,1*%
%TO.N,P115*%
X191725000Y-144050000D03*
%TO.P,S18,2*%
%TO.N,inner_thumb*%
X203275000Y-146250000D03*
%TD*%
%TO.P,S1,1*%
%TO.N,P022*%
X96725000Y-106050000D03*
%TO.P,S1,2*%
%TO.N,outer_bottom*%
X108275000Y-108250000D03*
%TD*%
D14*
%TO.P,D19,1*%
%TO.N,P011*%
X193190000Y-117000000D03*
D15*
X195350000Y-117000000D03*
%TO.P,D19,2*%
%TO.N,inner_bottom*%
X198650000Y-117000000D03*
D16*
X200810000Y-117000000D03*
%TD*%
D13*
%TO.P,S16,1*%
%TO.N,P113*%
X172725000Y-87050000D03*
%TO.P,S16,2*%
%TO.N,index_home*%
X184275000Y-89250000D03*
%TD*%
D17*
%TO.P,B1,1*%
%TO.N,GND*%
X148150000Y-136625000D03*
X148150000Y-131375000D03*
%TO.P,B1,2*%
%TO.N,RST*%
X149850000Y-136625000D03*
X149850000Y-131375000D03*
%TD*%
D13*
%TO.P,S12,1*%
%TO.N,P111*%
X153725000Y-87050000D03*
%TO.P,S12,2*%
%TO.N,middle_home*%
X165275000Y-89250000D03*
%TD*%
D14*
%TO.P,D3,1*%
%TO.N,P024*%
X98190000Y-79000000D03*
D15*
X100350000Y-79000000D03*
%TO.P,D3,2*%
%TO.N,outer_top*%
X103650000Y-79000000D03*
D16*
X105810000Y-79000000D03*
%TD*%
D14*
%TO.P,D2,1*%
%TO.N,P100*%
X98190000Y-98000000D03*
D15*
X100350000Y-98000000D03*
%TO.P,D2,2*%
%TO.N,outer_home*%
X103650000Y-98000000D03*
D16*
X105810000Y-98000000D03*
%TD*%
D14*
%TO.P,D9,1*%
%TO.N,P024*%
X136190000Y-79000000D03*
D15*
X138350000Y-79000000D03*
%TO.P,D9,2*%
%TO.N,ring_top*%
X141650000Y-79000000D03*
D16*
X143810000Y-79000000D03*
%TD*%
D14*
%TO.P,D10,1*%
%TO.N,P010*%
X155190000Y-155000000D03*
D15*
X157350000Y-155000000D03*
%TO.P,D10,2*%
%TO.N,middle_thumb*%
X160650000Y-155000000D03*
D16*
X162810000Y-155000000D03*
%TD*%
D14*
%TO.P,D7,1*%
%TO.N,P011*%
X136190000Y-117000000D03*
D15*
X138350000Y-117000000D03*
%TO.P,D7,2*%
%TO.N,ring_bottom*%
X141650000Y-117000000D03*
D16*
X143810000Y-117000000D03*
%TD*%
D13*
%TO.P,S7,1*%
%TO.N,P017*%
X134725000Y-106050000D03*
%TO.P,S7,2*%
%TO.N,ring_bottom*%
X146275000Y-108250000D03*
%TD*%
D14*
%TO.P,D4,1*%
%TO.N,P011*%
X117190000Y-117000000D03*
D15*
X119350000Y-117000000D03*
%TO.P,D4,2*%
%TO.N,pinky_bottom*%
X122650000Y-117000000D03*
D16*
X124810000Y-117000000D03*
%TD*%
D14*
%TO.P,D13,1*%
%TO.N,P024*%
X155190000Y-79000000D03*
D15*
X157350000Y-79000000D03*
%TO.P,D13,2*%
%TO.N,middle_top*%
X160650000Y-79000000D03*
D16*
X162810000Y-79000000D03*
%TD*%
D14*
%TO.P,D16,1*%
%TO.N,P100*%
X174190000Y-98000000D03*
D15*
X176350000Y-98000000D03*
%TO.P,D16,2*%
%TO.N,index_home*%
X179650000Y-98000000D03*
D16*
X181810000Y-98000000D03*
%TD*%
D18*
%TO.P,JST1,1*%
%TO.N,pos*%
X162000000Y-126000000D03*
D19*
%TO.P,JST1,2*%
%TO.N,GND*%
X162000000Y-128000000D03*
%TD*%
D14*
%TO.P,D21,1*%
%TO.N,P024*%
X193190000Y-79000000D03*
D15*
X195350000Y-79000000D03*
%TO.P,D21,2*%
%TO.N,inner_top*%
X198650000Y-79000000D03*
D16*
X200810000Y-79000000D03*
%TD*%
D14*
%TO.P,D11,1*%
%TO.N,P011*%
X155190000Y-117000000D03*
D15*
X157350000Y-117000000D03*
%TO.P,D11,2*%
%TO.N,middle_bottom*%
X160650000Y-117000000D03*
D16*
X162810000Y-117000000D03*
%TD*%
D14*
%TO.P,D8,1*%
%TO.N,P100*%
X136190000Y-98000000D03*
D15*
X138350000Y-98000000D03*
%TO.P,D8,2*%
%TO.N,ring_home*%
X141650000Y-98000000D03*
D16*
X143810000Y-98000000D03*
%TD*%
D13*
%TO.P,S2,1*%
%TO.N,P022*%
X96725000Y-87050000D03*
%TO.P,S2,2*%
%TO.N,outer_home*%
X108275000Y-89250000D03*
%TD*%
%TO.P,S15,1*%
%TO.N,P113*%
X172725000Y-106050000D03*
%TO.P,S15,2*%
%TO.N,index_bottom*%
X184275000Y-108250000D03*
%TD*%
%TO.P,S3,1*%
%TO.N,P022*%
X96725000Y-68050000D03*
%TO.P,S3,2*%
%TO.N,outer_top*%
X108275000Y-70250000D03*
%TD*%
D14*
%TO.P,D18,1*%
%TO.N,P010*%
X193190000Y-155000000D03*
D15*
X195350000Y-155000000D03*
%TO.P,D18,2*%
%TO.N,inner_thumb*%
X198650000Y-155000000D03*
D16*
X200810000Y-155000000D03*
%TD*%
D13*
%TO.P,S9,1*%
%TO.N,P017*%
X134725000Y-68050000D03*
%TO.P,S9,2*%
%TO.N,ring_top*%
X146275000Y-70250000D03*
%TD*%
D14*
%TO.P,D17,1*%
%TO.N,P024*%
X174190000Y-79000000D03*
D15*
X176350000Y-79000000D03*
%TO.P,D17,2*%
%TO.N,index_top*%
X179650000Y-79000000D03*
D16*
X181810000Y-79000000D03*
%TD*%
D14*
%TO.P,D15,1*%
%TO.N,P011*%
X174190000Y-117000000D03*
D15*
X176350000Y-117000000D03*
%TO.P,D15,2*%
%TO.N,index_bottom*%
X179650000Y-117000000D03*
D16*
X181810000Y-117000000D03*
%TD*%
D14*
%TO.P,D5,1*%
%TO.N,P100*%
X117190000Y-98000000D03*
D15*
X119350000Y-98000000D03*
%TO.P,D5,2*%
%TO.N,pinky_home*%
X122650000Y-98000000D03*
D16*
X124810000Y-98000000D03*
%TD*%
D13*
%TO.P,S8,1*%
%TO.N,P017*%
X134725000Y-87050000D03*
%TO.P,S8,2*%
%TO.N,ring_home*%
X146275000Y-89250000D03*
%TD*%
%TO.P,S10,1*%
%TO.N,P111*%
X153725000Y-144050000D03*
%TO.P,S10,2*%
%TO.N,middle_thumb*%
X165275000Y-146250000D03*
%TD*%
D14*
%TO.P,D14,1*%
%TO.N,P010*%
X174190000Y-155000000D03*
D15*
X176350000Y-155000000D03*
%TO.P,D14,2*%
%TO.N,index_thumb*%
X179650000Y-155000000D03*
D16*
X181810000Y-155000000D03*
%TD*%
D13*
%TO.P,S4,1*%
%TO.N,P020*%
X115725000Y-106050000D03*
%TO.P,S4,2*%
%TO.N,pinky_bottom*%
X127275000Y-108250000D03*
%TD*%
D20*
%TO.P,MCU1,1*%
%TO.N,P006*%
X199970000Y-124380000D03*
%TO.P,MCU1,2*%
%TO.N,P008*%
X197430000Y-124380000D03*
%TO.P,MCU1,3*%
%TO.N,GND*%
X194890000Y-124380000D03*
%TO.P,MCU1,4*%
X192350000Y-124380000D03*
%TO.P,MCU1,5*%
%TO.N,P017*%
X189810000Y-124380000D03*
%TO.P,MCU1,6*%
%TO.N,P020*%
X187270000Y-124380000D03*
%TO.P,MCU1,7*%
%TO.N,P022*%
X184730000Y-124380000D03*
%TO.P,MCU1,8*%
%TO.N,P024*%
X182190000Y-124380000D03*
%TO.P,MCU1,9*%
%TO.N,P100*%
X179650000Y-124380000D03*
%TO.P,MCU1,10*%
%TO.N,P011*%
X177110000Y-124380000D03*
%TO.P,MCU1,11*%
%TO.N,P104*%
X174570000Y-124380000D03*
%TO.P,MCU1,12*%
%TO.N,P106*%
X172030000Y-124380000D03*
%TO.P,MCU1,13*%
%TO.N,P009*%
X172030000Y-139620000D03*
%TO.P,MCU1,14*%
%TO.N,P010*%
X174570000Y-139620000D03*
%TO.P,MCU1,15*%
%TO.N,P111*%
X177110000Y-139620000D03*
%TO.P,MCU1,16*%
%TO.N,P113*%
X179650000Y-139620000D03*
%TO.P,MCU1,17*%
%TO.N,P115*%
X182190000Y-139620000D03*
%TO.P,MCU1,18*%
%TO.N,P002*%
X184730000Y-139620000D03*
%TO.P,MCU1,19*%
%TO.N,P029*%
X187270000Y-139620000D03*
%TO.P,MCU1,20*%
%TO.N,P031*%
X189810000Y-139620000D03*
%TO.P,MCU1,21*%
%TO.N,VCC*%
X192350000Y-139620000D03*
%TO.P,MCU1,22*%
%TO.N,RST*%
X194890000Y-139620000D03*
%TO.P,MCU1,23*%
%TO.N,GND*%
X197430000Y-139620000D03*
%TO.P,MCU1,24*%
%TO.N,RAW*%
X199970000Y-139620000D03*
%TD*%
D13*
%TO.P,S13,1*%
%TO.N,P111*%
X153725000Y-68050000D03*
%TO.P,S13,2*%
%TO.N,middle_top*%
X165275000Y-70250000D03*
%TD*%
D14*
%TO.P,D6,1*%
%TO.N,P024*%
X117190000Y-79000000D03*
D15*
X119350000Y-79000000D03*
%TO.P,D6,2*%
%TO.N,pinky_top*%
X122650000Y-79000000D03*
D16*
X124810000Y-79000000D03*
%TD*%
D13*
%TO.P,S21,1*%
%TO.N,P115*%
X191725000Y-68050000D03*
%TO.P,S21,2*%
%TO.N,inner_top*%
X203275000Y-70250000D03*
%TD*%
%TO.P,S20,1*%
%TO.N,P115*%
X191725000Y-87050000D03*
%TO.P,S20,2*%
%TO.N,inner_home*%
X203275000Y-89250000D03*
%TD*%
D14*
%TO.P,D12,1*%
%TO.N,P100*%
X155190000Y-98000000D03*
D15*
X157350000Y-98000000D03*
%TO.P,D12,2*%
%TO.N,middle_home*%
X160650000Y-98000000D03*
D16*
X162810000Y-98000000D03*
%TD*%
D13*
%TO.P,S14,1*%
%TO.N,P113*%
X172725000Y-144050000D03*
%TO.P,S14,2*%
%TO.N,index_thumb*%
X184275000Y-146250000D03*
%TD*%
%TO.P,S11,1*%
%TO.N,P111*%
X153725000Y-106050000D03*
%TO.P,S11,2*%
%TO.N,middle_bottom*%
X165275000Y-108250000D03*
%TD*%
%TO.P,S19,1*%
%TO.N,P115*%
X191725000Y-106050000D03*
%TO.P,S19,2*%
%TO.N,inner_bottom*%
X203275000Y-108250000D03*
%TD*%
%TO.P,S5,1*%
%TO.N,P020*%
X115725000Y-87050000D03*
%TO.P,S5,2*%
%TO.N,pinky_home*%
X127275000Y-89250000D03*
%TD*%
D21*
%TO.N,P022*%
X181649000Y-121299000D02*
X184730000Y-124380000D01*
X96725000Y-68050000D02*
X96725000Y-87050000D01*
X96725000Y-121024000D02*
X97000000Y-121299000D01*
X97000000Y-121299000D02*
X181649000Y-121299000D01*
X96725000Y-106050000D02*
X96725000Y-121024000D01*
X96725000Y-87050000D02*
X96725000Y-106050000D01*
%TO.N,outer_bottom*%
X108275000Y-108250000D02*
X108275000Y-114535000D01*
X108275000Y-114535000D02*
X105810000Y-117000000D01*
X105810000Y-117000000D02*
X103650000Y-117000000D01*
%TO.N,outer_home*%
X105810000Y-98000000D02*
X103650000Y-98000000D01*
X108275000Y-95535000D02*
X105810000Y-98000000D01*
X108275000Y-89250000D02*
X108275000Y-95535000D01*
%TO.N,outer_top*%
X108275000Y-76535000D02*
X105810000Y-79000000D01*
X105810000Y-79000000D02*
X103650000Y-79000000D01*
X108275000Y-70250000D02*
X108275000Y-76535000D01*
%TO.N,P020*%
X115725000Y-120573000D02*
X116000000Y-120848000D01*
X115725000Y-87050000D02*
X115725000Y-106050000D01*
X115725000Y-68050000D02*
X115725000Y-87050000D01*
X116000000Y-120848000D02*
X183738000Y-120848000D01*
X115725000Y-106050000D02*
X115725000Y-120573000D01*
X183738000Y-120848000D02*
X187270000Y-124380000D01*
%TO.N,pinky_bottom*%
X124810000Y-117000000D02*
X122650000Y-117000000D01*
X127275000Y-114535000D02*
X124810000Y-117000000D01*
X127275000Y-108250000D02*
X127275000Y-114535000D01*
%TO.N,pinky_home*%
X127275000Y-89250000D02*
X127275000Y-95535000D01*
X127275000Y-95535000D02*
X124810000Y-98000000D01*
X124810000Y-98000000D02*
X122650000Y-98000000D01*
%TO.N,pinky_top*%
X127275000Y-70250000D02*
X127275000Y-76535000D01*
X127275000Y-76535000D02*
X124810000Y-79000000D01*
X124810000Y-79000000D02*
X122650000Y-79000000D01*
%TO.N,P017*%
X134725000Y-87050000D02*
X134725000Y-106050000D01*
X185827000Y-120397000D02*
X189810000Y-124380000D01*
X134725000Y-68050000D02*
X134725000Y-87050000D01*
X134725000Y-106050000D02*
X134725000Y-120122000D01*
X135000000Y-120397000D02*
X185827000Y-120397000D01*
X134725000Y-120122000D02*
X135000000Y-120397000D01*
%TO.N,ring_bottom*%
X143810000Y-117000000D02*
X141650000Y-117000000D01*
X146275000Y-114535000D02*
X143810000Y-117000000D01*
X146275000Y-108250000D02*
X146275000Y-114535000D01*
%TO.N,ring_home*%
X146275000Y-89250000D02*
X146275000Y-95535000D01*
X146275000Y-95535000D02*
X143810000Y-98000000D01*
X143810000Y-98000000D02*
X141650000Y-98000000D01*
%TO.N,ring_top*%
X146275000Y-76535000D02*
X143810000Y-79000000D01*
X146275000Y-70250000D02*
X146275000Y-76535000D01*
X143810000Y-79000000D02*
X141650000Y-79000000D01*
%TO.N,P111*%
X153725000Y-118225000D02*
X155446000Y-119946000D01*
X153725000Y-145774000D02*
X153774000Y-145774000D01*
X153725000Y-144050000D02*
X153725000Y-145774000D01*
X153725000Y-106050000D02*
X153725000Y-118225000D01*
X198446000Y-119946000D02*
X202500000Y-124000000D01*
X153725000Y-68050000D02*
X153725000Y-87050000D01*
X180816095Y-137816095D02*
X178913905Y-137816095D01*
X202500000Y-126500000D02*
X199500000Y-129500000D01*
X199500000Y-129500000D02*
X189132190Y-129500000D01*
X189132190Y-129500000D02*
X180816095Y-137816095D01*
X155446000Y-119946000D02*
X198446000Y-119946000D01*
X153725000Y-87050000D02*
X153725000Y-106050000D01*
X162451000Y-141549000D02*
X175181000Y-141549000D01*
X158000000Y-146000000D02*
X162451000Y-141549000D01*
X175181000Y-141549000D02*
X177110000Y-139620000D01*
X202500000Y-124000000D02*
X202500000Y-126500000D01*
X153774000Y-145774000D02*
X154000000Y-146000000D01*
X178913905Y-137816095D02*
X177110000Y-139620000D01*
X154000000Y-146000000D02*
X158000000Y-146000000D01*
%TO.N,middle_thumb*%
X165275000Y-152535000D02*
X165275000Y-146250000D01*
X162810000Y-155000000D02*
X165275000Y-152535000D01*
X160650000Y-155000000D02*
X162810000Y-155000000D01*
%TO.N,middle_bottom*%
X162810000Y-117000000D02*
X160650000Y-117000000D01*
X165275000Y-108250000D02*
X165275000Y-114535000D01*
X165275000Y-114535000D02*
X162810000Y-117000000D01*
%TO.N,middle_home*%
X165275000Y-89250000D02*
X165275000Y-95535000D01*
X165275000Y-95535000D02*
X162810000Y-98000000D01*
X162810000Y-98000000D02*
X160650000Y-98000000D01*
%TO.N,middle_top*%
X162810000Y-79000000D02*
X160650000Y-79000000D01*
X165275000Y-76535000D02*
X162810000Y-79000000D01*
X165275000Y-70250000D02*
X165275000Y-76535000D01*
%TO.N,P113*%
X177270000Y-142000000D02*
X179650000Y-139620000D01*
X172725000Y-106050000D02*
X172725000Y-119495000D01*
X198632810Y-119495000D02*
X202951000Y-123813190D01*
X172725000Y-87050000D02*
X172725000Y-106050000D01*
X172725000Y-119495000D02*
X198632810Y-119495000D01*
X172725000Y-144050000D02*
X172725000Y-142275000D01*
X172725000Y-68050000D02*
X172725000Y-87050000D01*
X199686810Y-129951000D02*
X189319000Y-129951000D01*
X202951000Y-123813190D02*
X202951000Y-126686810D01*
X173000000Y-142000000D02*
X177270000Y-142000000D01*
X172725000Y-142275000D02*
X173000000Y-142000000D01*
X173346935Y-144050000D02*
X172725000Y-144050000D01*
X202951000Y-126686810D02*
X199686810Y-129951000D01*
X189319000Y-129951000D02*
X179650000Y-139620000D01*
%TO.N,index_thumb*%
X179650000Y-155000000D02*
X181810000Y-155000000D01*
X181810000Y-155000000D02*
X184275000Y-152535000D01*
X184275000Y-152535000D02*
X184275000Y-146250000D01*
%TO.N,index_bottom*%
X181810000Y-117000000D02*
X179650000Y-117000000D01*
X184275000Y-108250000D02*
X184275000Y-114535000D01*
X184275000Y-114535000D02*
X181810000Y-117000000D01*
%TO.N,index_home*%
X184275000Y-89250000D02*
X184275000Y-95535000D01*
X181810000Y-98000000D02*
X179650000Y-98000000D01*
X184275000Y-95535000D02*
X181810000Y-98000000D01*
%TO.N,index_top*%
X184275000Y-70250000D02*
X184275000Y-76535000D01*
X184275000Y-76535000D02*
X181810000Y-79000000D01*
X181810000Y-79000000D02*
X179650000Y-79000000D01*
%TO.N,P115*%
X199775620Y-130500000D02*
X189407810Y-130500000D01*
X189407810Y-130500000D02*
X182190000Y-137717810D01*
X191725000Y-87050000D02*
X191725000Y-106050000D01*
X191725000Y-106050000D02*
X191725000Y-118769000D01*
X187459691Y-144050000D02*
X183029691Y-139620000D01*
X203500000Y-126775620D02*
X199775620Y-130500000D01*
X198819620Y-119044000D02*
X203500000Y-123724380D01*
X192000000Y-119044000D02*
X198819620Y-119044000D01*
X191725000Y-118769000D02*
X192000000Y-119044000D01*
X182190000Y-137717810D02*
X182190000Y-139620000D01*
X203500000Y-123724380D02*
X203500000Y-126775620D01*
X191725000Y-144050000D02*
X187459691Y-144050000D01*
X191725000Y-68050000D02*
X191725000Y-87050000D01*
X183029691Y-139620000D02*
X182190000Y-139620000D01*
%TO.N,inner_thumb*%
X203275000Y-152535000D02*
X200810000Y-155000000D01*
X200810000Y-155000000D02*
X198650000Y-155000000D01*
X203275000Y-146250000D02*
X203275000Y-152535000D01*
%TO.N,inner_bottom*%
X203275000Y-108250000D02*
X203275000Y-114535000D01*
X203275000Y-114535000D02*
X200810000Y-117000000D01*
X200810000Y-117000000D02*
X198650000Y-117000000D01*
%TO.N,inner_home*%
X203275000Y-89250000D02*
X203275000Y-95535000D01*
X200810000Y-98000000D02*
X198650000Y-98000000D01*
X203275000Y-95535000D02*
X200810000Y-98000000D01*
%TO.N,inner_top*%
X203275000Y-70250000D02*
X203275000Y-76535000D01*
X203275000Y-76535000D02*
X200810000Y-79000000D01*
X200810000Y-79000000D02*
X198650000Y-79000000D01*
%TO.N,P011*%
X195350000Y-117000000D02*
X193190000Y-117000000D01*
X157350000Y-117000000D02*
X155190000Y-117000000D01*
X119350000Y-117000000D02*
X117190000Y-117000000D01*
X138350000Y-117000000D02*
X136190000Y-117000000D01*
X176350000Y-117000000D02*
X174190000Y-117000000D01*
X100350000Y-117000000D02*
X98190000Y-117000000D01*
%TO.N,P100*%
X138350000Y-98000000D02*
X136190000Y-98000000D01*
X119350000Y-98000000D02*
X117190000Y-98000000D01*
X176350000Y-98000000D02*
X174190000Y-98000000D01*
X100350000Y-98000000D02*
X98190000Y-98000000D01*
X195350000Y-98000000D02*
X193190000Y-98000000D01*
X157350000Y-98000000D02*
X155190000Y-98000000D01*
%TO.N,P024*%
X119350000Y-79000000D02*
X117190000Y-79000000D01*
X138350000Y-79000000D02*
X136190000Y-79000000D01*
X195350000Y-79000000D02*
X193190000Y-79000000D01*
X100350000Y-79000000D02*
X98190000Y-79000000D01*
X176350000Y-79000000D02*
X174190000Y-79000000D01*
X157350000Y-79000000D02*
X155190000Y-79000000D01*
%TO.N,P010*%
X195350000Y-155000000D02*
X193190000Y-155000000D01*
X157350000Y-155000000D02*
X155190000Y-155000000D01*
X176350000Y-155000000D02*
X174190000Y-155000000D01*
%TO.N,RAW*%
X150301000Y-139699000D02*
X150301000Y-145801000D01*
X158186810Y-146451000D02*
X161762810Y-142875000D01*
X151776000Y-124549000D02*
X163288810Y-124549000D01*
X163627000Y-127932562D02*
X162633562Y-128926000D01*
X167375000Y-142875000D02*
X171000000Y-146500000D01*
X150951000Y-146451000D02*
X158186810Y-146451000D01*
X163627000Y-124887190D02*
X163627000Y-127932562D01*
X193947277Y-147458500D02*
X194244565Y-147458500D01*
X187500000Y-148000000D02*
X187549000Y-148049000D01*
X177000000Y-146500000D02*
X180000000Y-143500000D01*
X187500000Y-145362190D02*
X187500000Y-148000000D01*
X199970000Y-141733065D02*
X199970000Y-139620000D01*
X194244565Y-147458500D02*
X199970000Y-141733065D01*
X171000000Y-146500000D02*
X177000000Y-146500000D01*
X185637810Y-143500000D02*
X187500000Y-145362190D01*
X150301000Y-145801000D02*
X150951000Y-146451000D01*
X180000000Y-143500000D02*
X185637810Y-143500000D01*
X152074000Y-128926000D02*
X151500000Y-129500000D01*
X161762810Y-142875000D02*
X167375000Y-142875000D01*
X163288810Y-124549000D02*
X163627000Y-124887190D01*
X151500000Y-138500000D02*
X150301000Y-139699000D01*
X193356777Y-148049000D02*
X193947277Y-147458500D01*
X162633562Y-128926000D02*
X152074000Y-128926000D01*
X187549000Y-148049000D02*
X193356777Y-148049000D01*
X151500000Y-129500000D02*
X151500000Y-138500000D01*
X151075000Y-125250000D02*
X151776000Y-124549000D01*
%TO.N,GND*%
X163176000Y-125074000D02*
X163102000Y-125000000D01*
X148676000Y-128676000D02*
X148676000Y-130849000D01*
X148150000Y-136625000D02*
X148150000Y-136852000D01*
X148676000Y-130849000D02*
X148150000Y-131375000D01*
X149526000Y-126026000D02*
X149500000Y-126000000D01*
X149526000Y-126026000D02*
X148474000Y-126026000D01*
X155026000Y-126026000D02*
X149526000Y-126026000D01*
X163176000Y-126824000D02*
X163176000Y-125074000D01*
X156052000Y-125000000D02*
X155026000Y-126026000D01*
X162000000Y-128000000D02*
X163176000Y-126824000D01*
X148376000Y-131601000D02*
X148376000Y-136399000D01*
X148474000Y-126026000D02*
X148000000Y-126500000D01*
X149500000Y-126000000D02*
X148902000Y-126000000D01*
X148150000Y-131375000D02*
X148376000Y-131601000D01*
X148000000Y-126500000D02*
X148000000Y-128000000D01*
X148376000Y-136399000D02*
X148150000Y-136625000D01*
X148150000Y-131375000D02*
X148500000Y-131725000D01*
X148500000Y-136275000D02*
X148150000Y-136625000D01*
X163102000Y-125000000D02*
X156052000Y-125000000D01*
X148000000Y-128000000D02*
X148676000Y-128676000D01*
%TO.N,RST*%
X150764190Y-146902000D02*
X158424000Y-146902000D01*
X187000000Y-148137810D02*
X187362190Y-148500000D01*
X149850000Y-145987810D02*
X150764190Y-146902000D01*
X201172300Y-141168575D02*
X201172300Y-139121991D01*
X193771794Y-148271794D02*
X194134087Y-147909500D01*
X158424000Y-146902000D02*
X162000000Y-143326000D01*
X187362190Y-148500000D02*
X193543588Y-148500000D01*
X185451000Y-143951000D02*
X187000000Y-145500000D01*
X194134087Y-147909500D02*
X194431375Y-147909500D01*
X170813190Y-146951000D02*
X177186810Y-146951000D01*
X167188190Y-143326000D02*
X170813190Y-146951000D01*
X180186810Y-143951000D02*
X185451000Y-143951000D01*
X193543587Y-148500000D02*
X193771794Y-148271794D01*
X149624000Y-131601000D02*
X149624000Y-136399000D01*
X162000000Y-143326000D02*
X167188190Y-143326000D01*
X194431375Y-147909500D02*
X201172300Y-141168575D01*
X187000000Y-145500000D02*
X187000000Y-148137810D01*
X193543588Y-148500000D02*
X193771794Y-148271794D01*
X177186810Y-146951000D02*
X180186810Y-143951000D01*
X200468009Y-138417700D02*
X196092300Y-138417700D01*
X149850000Y-136625000D02*
X149850000Y-145987810D01*
X149850000Y-131375000D02*
X149624000Y-131601000D01*
X196092300Y-138417700D02*
X194890000Y-139620000D01*
X149624000Y-136399000D02*
X149850000Y-136625000D01*
X201172300Y-139121991D02*
X200468009Y-138417700D01*
%TO.N,pos*%
X153750000Y-128250000D02*
X151075000Y-128250000D01*
X156000000Y-126000000D02*
X153750000Y-128250000D01*
X162000000Y-126000000D02*
X156000000Y-126000000D01*
%TD*%
M02*
