%TF.GenerationSoftware,KiCad,Pcbnew,9.0.4*%
%TF.CreationDate,2025-09-30T09:08:11+02:00*%
%TF.ProjectId,right,72696768-742e-46b6-9963-61645f706362,v1.0.0*%
%TF.SameCoordinates,Original*%
%TF.FileFunction,Paste,Bot*%
%TF.FilePolarity,Positive*%
%FSLAX46Y46*%
G04 Gerber Fmt 4.6, Leading zero omitted, Abs format (unit mm)*
G04 Created by KiCad (PCBNEW 9.0.4) date 2025-09-30 09:08:11*
%MOMM*%
%LPD*%
G01*
G04 APERTURE LIST*
%ADD10R,2.600000X2.600000*%
%ADD11R,0.900000X1.200000*%
%ADD12R,1.000000X1.550000*%
%ADD13R,1.250000X0.900000*%
%ADD14R,0.900000X0.900000*%
G04 APERTURE END LIST*
D10*
%TO.C,S1*%
X96725000Y-144050000D03*
X108275000Y-146250000D03*
%TD*%
%TO.C,S2*%
X96725000Y-106050000D03*
X108275000Y-108250000D03*
%TD*%
%TO.C,S3*%
X96725000Y-87050000D03*
X108275000Y-89250000D03*
%TD*%
%TO.C,S4*%
X96725000Y-68050000D03*
X108275000Y-70250000D03*
%TD*%
%TO.C,S5*%
X115725000Y-144050000D03*
X127275000Y-146250000D03*
%TD*%
%TO.C,S6*%
X115725000Y-106050000D03*
X127275000Y-108250000D03*
%TD*%
%TO.C,S7*%
X115725000Y-87050000D03*
X127275000Y-89250000D03*
%TD*%
%TO.C,S8*%
X115725000Y-68050000D03*
X127275000Y-70250000D03*
%TD*%
%TO.C,S9*%
X134725000Y-144050000D03*
X146275000Y-146250000D03*
%TD*%
%TO.C,S10*%
X134725000Y-106050000D03*
X146275000Y-108250000D03*
%TD*%
%TO.C,S11*%
X134725000Y-87050000D03*
X146275000Y-89250000D03*
%TD*%
%TO.C,S12*%
X134725000Y-68050000D03*
X146275000Y-70250000D03*
%TD*%
%TO.C,S13*%
X153725000Y-106050000D03*
X165275000Y-108250000D03*
%TD*%
%TO.C,S14*%
X153725000Y-87050000D03*
X165275000Y-89250000D03*
%TD*%
%TO.C,S15*%
X153725000Y-68050000D03*
X165275000Y-70250000D03*
%TD*%
%TO.C,S16*%
X172725000Y-106050000D03*
X184275000Y-108250000D03*
%TD*%
%TO.C,S17*%
X172725000Y-87050000D03*
X184275000Y-89250000D03*
%TD*%
%TO.C,S18*%
X172725000Y-68050000D03*
X184275000Y-70250000D03*
%TD*%
%TO.C,S19*%
X191725000Y-106050000D03*
X203275000Y-108250000D03*
%TD*%
%TO.C,S20*%
X191725000Y-87050000D03*
X203275000Y-89250000D03*
%TD*%
%TO.C,S21*%
X191725000Y-68050000D03*
X203275000Y-70250000D03*
%TD*%
D11*
%TO.C,D1*%
X103650000Y-155000000D03*
X100350000Y-155000000D03*
%TD*%
%TO.C,D2*%
X103650000Y-117000000D03*
X100350000Y-117000000D03*
%TD*%
%TO.C,D3*%
X103650000Y-98000000D03*
X100350000Y-98000000D03*
%TD*%
%TO.C,D4*%
X103650000Y-79000000D03*
X100350000Y-79000000D03*
%TD*%
%TO.C,D5*%
X122650000Y-155000000D03*
X119350000Y-155000000D03*
%TD*%
%TO.C,D6*%
X122650000Y-117000000D03*
X119350000Y-117000000D03*
%TD*%
%TO.C,D7*%
X122650000Y-98000000D03*
X119350000Y-98000000D03*
%TD*%
%TO.C,D8*%
X122650000Y-79000000D03*
X119350000Y-79000000D03*
%TD*%
%TO.C,D9*%
X141650000Y-155000000D03*
X138350000Y-155000000D03*
%TD*%
%TO.C,D10*%
X141650000Y-117000000D03*
X138350000Y-117000000D03*
%TD*%
%TO.C,D11*%
X141650000Y-98000000D03*
X138350000Y-98000000D03*
%TD*%
%TO.C,D12*%
X141650000Y-79000000D03*
X138350000Y-79000000D03*
%TD*%
%TO.C,D13*%
X160650000Y-117000000D03*
X157350000Y-117000000D03*
%TD*%
%TO.C,D14*%
X160650000Y-98000000D03*
X157350000Y-98000000D03*
%TD*%
%TO.C,D15*%
X160650000Y-79000000D03*
X157350000Y-79000000D03*
%TD*%
%TO.C,D16*%
X179650000Y-117000000D03*
X176350000Y-117000000D03*
%TD*%
%TO.C,D17*%
X179650000Y-98000000D03*
X176350000Y-98000000D03*
%TD*%
%TO.C,D18*%
X179650000Y-79000000D03*
X176350000Y-79000000D03*
%TD*%
%TO.C,D19*%
X198650000Y-117000000D03*
X195350000Y-117000000D03*
%TD*%
%TO.C,D20*%
X198650000Y-98000000D03*
X195350000Y-98000000D03*
%TD*%
%TO.C,D21*%
X198650000Y-79000000D03*
X195350000Y-79000000D03*
%TD*%
D12*
%TO.C,B1*%
X146850000Y-131375000D03*
X146850000Y-136625000D03*
X145150000Y-131375000D03*
X145150000Y-136625000D03*
%TD*%
D13*
%TO.C,T1*%
X143925000Y-123750000D03*
X143925000Y-126750000D03*
X143925000Y-128250000D03*
D14*
X147100000Y-129700000D03*
X144900000Y-129700000D03*
X144900000Y-122300000D03*
X147100000Y-122300000D03*
%TD*%
M02*
