%TF.GenerationSoftware,KiCad,Pcbnew,9.0.4*%
%TF.CreationDate,2025-09-30T09:07:34+02:00*%
%TF.ProjectId,right,72696768-742e-46b6-9963-61645f706362,v1.0.0*%
%TF.SameCoordinates,Original*%
%TF.FileFunction,NonPlated,1,2,NPTH,Drill*%
%TF.FilePolarity,Positive*%
%FSLAX46Y46*%
G04 Gerber Fmt 4.6, Leading zero omitted, Abs format (unit mm)*
G04 Created by KiCad (PCBNEW 9.0.4) date 2025-09-30 09:07:34*
%MOMM*%
%LPD*%
G01*
G04 APERTURE LIST*
%TA.AperFunction,ComponentDrill*%
%ADD10C,0.750000*%
%TD*%
%TA.AperFunction,ComponentDrill*%
%ADD11C,0.900000*%
%TD*%
%TA.AperFunction,ComponentDrill*%
%ADD12C,1.701800*%
%TD*%
%TA.AperFunction,ComponentDrill*%
%ADD13C,3.000000*%
%TD*%
%TA.AperFunction,ComponentDrill*%
%ADD14C,3.429000*%
%TD*%
%TA.AperFunction,ComponentDrill*%
%ADD15C,4.000000*%
%TD*%
G04 APERTURE END LIST*
D10*
%TO.C,B1*%
X144625000Y-134000000D03*
X147375000Y-134000000D03*
D11*
%TO.C,T1*%
X146000000Y-124500000D03*
X146000000Y-127500000D03*
D12*
%TO.C,S4*%
X94500000Y-74000000D03*
%TO.C,S3*%
X94500000Y-93000000D03*
%TO.C,S2*%
X94500000Y-112000000D03*
%TO.C,S1*%
X94500000Y-150000000D03*
%TO.C,S4*%
X105500000Y-74000000D03*
%TO.C,S3*%
X105500000Y-93000000D03*
%TO.C,S2*%
X105500000Y-112000000D03*
%TO.C,S1*%
X105500000Y-150000000D03*
%TO.C,S8*%
X113500000Y-74000000D03*
%TO.C,S7*%
X113500000Y-93000000D03*
%TO.C,S6*%
X113500000Y-112000000D03*
%TO.C,S5*%
X113500000Y-150000000D03*
%TO.C,S8*%
X124500000Y-74000000D03*
%TO.C,S7*%
X124500000Y-93000000D03*
%TO.C,S6*%
X124500000Y-112000000D03*
%TO.C,S5*%
X124500000Y-150000000D03*
%TO.C,S12*%
X132500000Y-74000000D03*
%TO.C,S11*%
X132500000Y-93000000D03*
%TO.C,S10*%
X132500000Y-112000000D03*
%TO.C,S9*%
X132500000Y-150000000D03*
%TO.C,S12*%
X143500000Y-74000000D03*
%TO.C,S11*%
X143500000Y-93000000D03*
%TO.C,S10*%
X143500000Y-112000000D03*
%TO.C,S9*%
X143500000Y-150000000D03*
%TO.C,S15*%
X151500000Y-74000000D03*
%TO.C,S14*%
X151500000Y-93000000D03*
%TO.C,S13*%
X151500000Y-112000000D03*
%TO.C,S15*%
X162500000Y-74000000D03*
%TO.C,S14*%
X162500000Y-93000000D03*
%TO.C,S13*%
X162500000Y-112000000D03*
%TO.C,S18*%
X170500000Y-74000000D03*
%TO.C,S17*%
X170500000Y-93000000D03*
%TO.C,S16*%
X170500000Y-112000000D03*
%TO.C,S18*%
X181500000Y-74000000D03*
%TO.C,S17*%
X181500000Y-93000000D03*
%TO.C,S16*%
X181500000Y-112000000D03*
%TO.C,S21*%
X189500000Y-74000000D03*
%TO.C,S20*%
X189500000Y-93000000D03*
%TO.C,S19*%
X189500000Y-112000000D03*
%TO.C,S21*%
X200500000Y-74000000D03*
%TO.C,S20*%
X200500000Y-93000000D03*
%TO.C,S19*%
X200500000Y-112000000D03*
D13*
%TO.C,S4*%
X100000000Y-68050000D03*
%TO.C,S3*%
X100000000Y-87050000D03*
%TO.C,S2*%
X100000000Y-106050000D03*
%TO.C,S1*%
X100000000Y-144050000D03*
%TO.C,S4*%
X105000000Y-70250000D03*
%TO.C,S3*%
X105000000Y-89250000D03*
%TO.C,S2*%
X105000000Y-108250000D03*
%TO.C,S1*%
X105000000Y-146250000D03*
%TO.C,S8*%
X119000000Y-68050000D03*
%TO.C,S7*%
X119000000Y-87050000D03*
%TO.C,S6*%
X119000000Y-106050000D03*
%TO.C,S5*%
X119000000Y-144050000D03*
%TO.C,S8*%
X124000000Y-70250000D03*
%TO.C,S7*%
X124000000Y-89250000D03*
%TO.C,S6*%
X124000000Y-108250000D03*
%TO.C,S5*%
X124000000Y-146250000D03*
%TO.C,S12*%
X138000000Y-68050000D03*
%TO.C,S11*%
X138000000Y-87050000D03*
%TO.C,S10*%
X138000000Y-106050000D03*
%TO.C,S9*%
X138000000Y-144050000D03*
%TO.C,S12*%
X143000000Y-70250000D03*
%TO.C,S11*%
X143000000Y-89250000D03*
%TO.C,S10*%
X143000000Y-108250000D03*
%TO.C,S9*%
X143000000Y-146250000D03*
%TO.C,S15*%
X157000000Y-68050000D03*
%TO.C,S14*%
X157000000Y-87050000D03*
%TO.C,S13*%
X157000000Y-106050000D03*
%TO.C,S15*%
X162000000Y-70250000D03*
%TO.C,S14*%
X162000000Y-89250000D03*
%TO.C,S13*%
X162000000Y-108250000D03*
%TO.C,S18*%
X176000000Y-68050000D03*
%TO.C,S17*%
X176000000Y-87050000D03*
%TO.C,S16*%
X176000000Y-106050000D03*
%TO.C,S18*%
X181000000Y-70250000D03*
%TO.C,S17*%
X181000000Y-89250000D03*
%TO.C,S16*%
X181000000Y-108250000D03*
%TO.C,S21*%
X195000000Y-68050000D03*
%TO.C,S20*%
X195000000Y-87050000D03*
%TO.C,S19*%
X195000000Y-106050000D03*
%TO.C,S21*%
X200000000Y-70250000D03*
%TO.C,S20*%
X200000000Y-89250000D03*
%TO.C,S19*%
X200000000Y-108250000D03*
D14*
%TO.C,S4*%
X100000000Y-74000000D03*
%TO.C,S3*%
X100000000Y-93000000D03*
%TO.C,S2*%
X100000000Y-112000000D03*
%TO.C,S1*%
X100000000Y-150000000D03*
%TO.C,S8*%
X119000000Y-74000000D03*
%TO.C,S7*%
X119000000Y-93000000D03*
%TO.C,S6*%
X119000000Y-112000000D03*
%TO.C,S5*%
X119000000Y-150000000D03*
%TO.C,S12*%
X138000000Y-74000000D03*
%TO.C,S11*%
X138000000Y-93000000D03*
%TO.C,S10*%
X138000000Y-112000000D03*
%TO.C,S9*%
X138000000Y-150000000D03*
%TO.C,S15*%
X157000000Y-74000000D03*
%TO.C,S14*%
X157000000Y-93000000D03*
%TO.C,S13*%
X157000000Y-112000000D03*
%TO.C,S18*%
X176000000Y-74000000D03*
%TO.C,S17*%
X176000000Y-93000000D03*
%TO.C,S16*%
X176000000Y-112000000D03*
%TO.C,S21*%
X195000000Y-74000000D03*
%TO.C,S20*%
X195000000Y-93000000D03*
%TO.C,S19*%
X195000000Y-112000000D03*
D15*
%TO.C,*%
X138000000Y-135000000D03*
M02*
