%TF.GenerationSoftware,KiCad,Pcbnew,9.0.4*%
%TF.CreationDate,2025-09-30T09:07:34+02:00*%
%TF.ProjectId,right,72696768-742e-46b6-9963-61645f706362,v1.0.0*%
%TF.SameCoordinates,Original*%
%TF.FileFunction,Plated,1,2,PTH,Drill*%
%TF.FilePolarity,Positive*%
%FSLAX46Y46*%
G04 Gerber Fmt 4.6, Leading zero omitted, Abs format (unit mm)*
G04 Created by KiCad (PCBNEW 9.0.4) date 2025-09-30 09:07:34*
%MOMM*%
%LPD*%
G01*
G04 APERTURE LIST*
%TA.AperFunction,ComponentDrill*%
%ADD10C,0.750000*%
%TD*%
%TA.AperFunction,ComponentDrill*%
%ADD11C,0.990600*%
%TD*%
%TA.AperFunction,ComponentDrill*%
%ADD12C,1.092200*%
%TD*%
G04 APERTURE END LIST*
D10*
%TO.C,JST1*%
X135000000Y-126000000D03*
X135000000Y-128000000D03*
D11*
%TO.C,D4*%
X98190000Y-79000000D03*
%TO.C,D3*%
X98190000Y-98000000D03*
%TO.C,D2*%
X98190000Y-117000000D03*
%TO.C,D1*%
X98190000Y-155000000D03*
%TO.C,D4*%
X105810000Y-79000000D03*
%TO.C,D3*%
X105810000Y-98000000D03*
%TO.C,D2*%
X105810000Y-117000000D03*
%TO.C,D1*%
X105810000Y-155000000D03*
%TO.C,D8*%
X117190000Y-79000000D03*
%TO.C,D7*%
X117190000Y-98000000D03*
%TO.C,D6*%
X117190000Y-117000000D03*
%TO.C,D5*%
X117190000Y-155000000D03*
%TO.C,D8*%
X124810000Y-79000000D03*
%TO.C,D7*%
X124810000Y-98000000D03*
%TO.C,D6*%
X124810000Y-117000000D03*
%TO.C,D5*%
X124810000Y-155000000D03*
%TO.C,D12*%
X136190000Y-79000000D03*
%TO.C,D11*%
X136190000Y-98000000D03*
%TO.C,D10*%
X136190000Y-117000000D03*
%TO.C,D9*%
X136190000Y-155000000D03*
%TO.C,D12*%
X143810000Y-79000000D03*
%TO.C,D11*%
X143810000Y-98000000D03*
%TO.C,D10*%
X143810000Y-117000000D03*
%TO.C,D9*%
X143810000Y-155000000D03*
%TO.C,D15*%
X155190000Y-79000000D03*
%TO.C,D14*%
X155190000Y-98000000D03*
%TO.C,D13*%
X155190000Y-117000000D03*
%TO.C,D15*%
X162810000Y-79000000D03*
%TO.C,D14*%
X162810000Y-98000000D03*
%TO.C,D13*%
X162810000Y-117000000D03*
%TO.C,D18*%
X174190000Y-79000000D03*
%TO.C,D17*%
X174190000Y-98000000D03*
%TO.C,D16*%
X174190000Y-117000000D03*
%TO.C,D18*%
X181810000Y-79000000D03*
%TO.C,D17*%
X181810000Y-98000000D03*
%TO.C,D16*%
X181810000Y-117000000D03*
%TO.C,D21*%
X193190000Y-79000000D03*
%TO.C,D20*%
X193190000Y-98000000D03*
%TO.C,D19*%
X193190000Y-117000000D03*
%TO.C,D21*%
X200810000Y-79000000D03*
%TO.C,D20*%
X200810000Y-98000000D03*
%TO.C,D19*%
X200810000Y-117000000D03*
D12*
%TO.C,MCU1*%
X95530000Y-124380000D03*
X95530000Y-139620000D03*
X98070000Y-124380000D03*
X98070000Y-139620000D03*
X100610000Y-124380000D03*
X100610000Y-139620000D03*
X103150000Y-124380000D03*
X103150000Y-139620000D03*
X105690000Y-124380000D03*
X105690000Y-139620000D03*
X108230000Y-124380000D03*
X108230000Y-139620000D03*
X110770000Y-124380000D03*
X110770000Y-139620000D03*
X113310000Y-124380000D03*
X113310000Y-139620000D03*
X115850000Y-124380000D03*
X115850000Y-139620000D03*
X118390000Y-124380000D03*
X118390000Y-139620000D03*
X120930000Y-124380000D03*
X120930000Y-139620000D03*
X123470000Y-124380000D03*
X123470000Y-139620000D03*
M02*
