%TF.GenerationSoftware,KiCad,Pcbnew,9.0.4*%
%TF.CreationDate,2025-09-30T09:08:11+02:00*%
%TF.ProjectId,right,72696768-742e-46b6-9963-61645f706362,v1.0.0*%
%TF.SameCoordinates,Original*%
%TF.FileFunction,Legend,Top*%
%TF.FilePolarity,Positive*%
%FSLAX46Y46*%
G04 Gerber Fmt 4.6, Leading zero omitted, Abs format (unit mm)*
G04 Created by KiCad (PCBNEW 9.0.4) date 2025-09-30 09:08:11*
%MOMM*%
%LPD*%
G01*
G04 APERTURE LIST*
%ADD10C,0.150000*%
%ADD11C,0.300000*%
%ADD12C,0.100000*%
%ADD13C,0.381000*%
%ADD14C,1.752600*%
%ADD15C,4.000000*%
G04 APERTURE END LIST*
D10*
X95892295Y-127078665D02*
X95511342Y-127345332D01*
X95892295Y-127535808D02*
X95092295Y-127535808D01*
X95092295Y-127535808D02*
X95092295Y-127231046D01*
X95092295Y-127231046D02*
X95130390Y-127154856D01*
X95130390Y-127154856D02*
X95168485Y-127116761D01*
X95168485Y-127116761D02*
X95244676Y-127078665D01*
X95244676Y-127078665D02*
X95358961Y-127078665D01*
X95358961Y-127078665D02*
X95435152Y-127116761D01*
X95435152Y-127116761D02*
X95473247Y-127154856D01*
X95473247Y-127154856D02*
X95511342Y-127231046D01*
X95511342Y-127231046D02*
X95511342Y-127535808D01*
X95663723Y-126773904D02*
X95663723Y-126392951D01*
X95892295Y-126850094D02*
X95092295Y-126583427D01*
X95092295Y-126583427D02*
X95892295Y-126316761D01*
X95092295Y-126126285D02*
X95892295Y-125935809D01*
X95892295Y-125935809D02*
X95320866Y-125783428D01*
X95320866Y-125783428D02*
X95892295Y-125631047D01*
X95892295Y-125631047D02*
X95092295Y-125440571D01*
X97670390Y-127154856D02*
X97632295Y-127231046D01*
X97632295Y-127231046D02*
X97632295Y-127345332D01*
X97632295Y-127345332D02*
X97670390Y-127459618D01*
X97670390Y-127459618D02*
X97746580Y-127535808D01*
X97746580Y-127535808D02*
X97822771Y-127573903D01*
X97822771Y-127573903D02*
X97975152Y-127611999D01*
X97975152Y-127611999D02*
X98089438Y-127611999D01*
X98089438Y-127611999D02*
X98241819Y-127573903D01*
X98241819Y-127573903D02*
X98318009Y-127535808D01*
X98318009Y-127535808D02*
X98394200Y-127459618D01*
X98394200Y-127459618D02*
X98432295Y-127345332D01*
X98432295Y-127345332D02*
X98432295Y-127269141D01*
X98432295Y-127269141D02*
X98394200Y-127154856D01*
X98394200Y-127154856D02*
X98356104Y-127116760D01*
X98356104Y-127116760D02*
X98089438Y-127116760D01*
X98089438Y-127116760D02*
X98089438Y-127269141D01*
X98432295Y-126773903D02*
X97632295Y-126773903D01*
X97632295Y-126773903D02*
X98432295Y-126316760D01*
X98432295Y-126316760D02*
X97632295Y-126316760D01*
X98432295Y-125935808D02*
X97632295Y-125935808D01*
X97632295Y-125935808D02*
X97632295Y-125745332D01*
X97632295Y-125745332D02*
X97670390Y-125631046D01*
X97670390Y-125631046D02*
X97746580Y-125554856D01*
X97746580Y-125554856D02*
X97822771Y-125516761D01*
X97822771Y-125516761D02*
X97975152Y-125478665D01*
X97975152Y-125478665D02*
X98089438Y-125478665D01*
X98089438Y-125478665D02*
X98241819Y-125516761D01*
X98241819Y-125516761D02*
X98318009Y-125554856D01*
X98318009Y-125554856D02*
X98394200Y-125631046D01*
X98394200Y-125631046D02*
X98432295Y-125745332D01*
X98432295Y-125745332D02*
X98432295Y-125935808D01*
X100972295Y-126850094D02*
X100591342Y-127116761D01*
X100972295Y-127307237D02*
X100172295Y-127307237D01*
X100172295Y-127307237D02*
X100172295Y-127002475D01*
X100172295Y-127002475D02*
X100210390Y-126926285D01*
X100210390Y-126926285D02*
X100248485Y-126888190D01*
X100248485Y-126888190D02*
X100324676Y-126850094D01*
X100324676Y-126850094D02*
X100438961Y-126850094D01*
X100438961Y-126850094D02*
X100515152Y-126888190D01*
X100515152Y-126888190D02*
X100553247Y-126926285D01*
X100553247Y-126926285D02*
X100591342Y-127002475D01*
X100591342Y-127002475D02*
X100591342Y-127307237D01*
X100934200Y-126545333D02*
X100972295Y-126431047D01*
X100972295Y-126431047D02*
X100972295Y-126240571D01*
X100972295Y-126240571D02*
X100934200Y-126164380D01*
X100934200Y-126164380D02*
X100896104Y-126126285D01*
X100896104Y-126126285D02*
X100819914Y-126088190D01*
X100819914Y-126088190D02*
X100743723Y-126088190D01*
X100743723Y-126088190D02*
X100667533Y-126126285D01*
X100667533Y-126126285D02*
X100629438Y-126164380D01*
X100629438Y-126164380D02*
X100591342Y-126240571D01*
X100591342Y-126240571D02*
X100553247Y-126392952D01*
X100553247Y-126392952D02*
X100515152Y-126469142D01*
X100515152Y-126469142D02*
X100477057Y-126507237D01*
X100477057Y-126507237D02*
X100400866Y-126545333D01*
X100400866Y-126545333D02*
X100324676Y-126545333D01*
X100324676Y-126545333D02*
X100248485Y-126507237D01*
X100248485Y-126507237D02*
X100210390Y-126469142D01*
X100210390Y-126469142D02*
X100172295Y-126392952D01*
X100172295Y-126392952D02*
X100172295Y-126202475D01*
X100172295Y-126202475D02*
X100210390Y-126088190D01*
X100172295Y-125859618D02*
X100172295Y-125402475D01*
X100972295Y-125631047D02*
X100172295Y-125631047D01*
X102712295Y-127529475D02*
X103512295Y-127262808D01*
X103512295Y-127262808D02*
X102712295Y-126996142D01*
X103436104Y-126272332D02*
X103474200Y-126310428D01*
X103474200Y-126310428D02*
X103512295Y-126424713D01*
X103512295Y-126424713D02*
X103512295Y-126500904D01*
X103512295Y-126500904D02*
X103474200Y-126615190D01*
X103474200Y-126615190D02*
X103398009Y-126691380D01*
X103398009Y-126691380D02*
X103321819Y-126729475D01*
X103321819Y-126729475D02*
X103169438Y-126767571D01*
X103169438Y-126767571D02*
X103055152Y-126767571D01*
X103055152Y-126767571D02*
X102902771Y-126729475D01*
X102902771Y-126729475D02*
X102826580Y-126691380D01*
X102826580Y-126691380D02*
X102750390Y-126615190D01*
X102750390Y-126615190D02*
X102712295Y-126500904D01*
X102712295Y-126500904D02*
X102712295Y-126424713D01*
X102712295Y-126424713D02*
X102750390Y-126310428D01*
X102750390Y-126310428D02*
X102788485Y-126272332D01*
X103436104Y-125472332D02*
X103474200Y-125510428D01*
X103474200Y-125510428D02*
X103512295Y-125624713D01*
X103512295Y-125624713D02*
X103512295Y-125700904D01*
X103512295Y-125700904D02*
X103474200Y-125815190D01*
X103474200Y-125815190D02*
X103398009Y-125891380D01*
X103398009Y-125891380D02*
X103321819Y-125929475D01*
X103321819Y-125929475D02*
X103169438Y-125967571D01*
X103169438Y-125967571D02*
X103055152Y-125967571D01*
X103055152Y-125967571D02*
X102902771Y-125929475D01*
X102902771Y-125929475D02*
X102826580Y-125891380D01*
X102826580Y-125891380D02*
X102750390Y-125815190D01*
X102750390Y-125815190D02*
X102712295Y-125700904D01*
X102712295Y-125700904D02*
X102712295Y-125624713D01*
X102712295Y-125624713D02*
X102750390Y-125510428D01*
X102750390Y-125510428D02*
X102788485Y-125472332D01*
X105252295Y-127262808D02*
X105252295Y-127186618D01*
X105252295Y-127186618D02*
X105290390Y-127110427D01*
X105290390Y-127110427D02*
X105328485Y-127072332D01*
X105328485Y-127072332D02*
X105404676Y-127034237D01*
X105404676Y-127034237D02*
X105557057Y-126996142D01*
X105557057Y-126996142D02*
X105747533Y-126996142D01*
X105747533Y-126996142D02*
X105899914Y-127034237D01*
X105899914Y-127034237D02*
X105976104Y-127072332D01*
X105976104Y-127072332D02*
X106014200Y-127110427D01*
X106014200Y-127110427D02*
X106052295Y-127186618D01*
X106052295Y-127186618D02*
X106052295Y-127262808D01*
X106052295Y-127262808D02*
X106014200Y-127338999D01*
X106014200Y-127338999D02*
X105976104Y-127377094D01*
X105976104Y-127377094D02*
X105899914Y-127415189D01*
X105899914Y-127415189D02*
X105747533Y-127453285D01*
X105747533Y-127453285D02*
X105557057Y-127453285D01*
X105557057Y-127453285D02*
X105404676Y-127415189D01*
X105404676Y-127415189D02*
X105328485Y-127377094D01*
X105328485Y-127377094D02*
X105290390Y-127338999D01*
X105290390Y-127338999D02*
X105252295Y-127262808D01*
X105252295Y-126729475D02*
X105252295Y-126234237D01*
X105252295Y-126234237D02*
X105557057Y-126500903D01*
X105557057Y-126500903D02*
X105557057Y-126386618D01*
X105557057Y-126386618D02*
X105595152Y-126310427D01*
X105595152Y-126310427D02*
X105633247Y-126272332D01*
X105633247Y-126272332D02*
X105709438Y-126234237D01*
X105709438Y-126234237D02*
X105899914Y-126234237D01*
X105899914Y-126234237D02*
X105976104Y-126272332D01*
X105976104Y-126272332D02*
X106014200Y-126310427D01*
X106014200Y-126310427D02*
X106052295Y-126386618D01*
X106052295Y-126386618D02*
X106052295Y-126615189D01*
X106052295Y-126615189D02*
X106014200Y-126691380D01*
X106014200Y-126691380D02*
X105976104Y-126729475D01*
X106052295Y-125472332D02*
X106052295Y-125929475D01*
X106052295Y-125700903D02*
X105252295Y-125700903D01*
X105252295Y-125700903D02*
X105366580Y-125777094D01*
X105366580Y-125777094D02*
X105442771Y-125853284D01*
X105442771Y-125853284D02*
X105480866Y-125929475D01*
X107792295Y-127262808D02*
X107792295Y-127186618D01*
X107792295Y-127186618D02*
X107830390Y-127110427D01*
X107830390Y-127110427D02*
X107868485Y-127072332D01*
X107868485Y-127072332D02*
X107944676Y-127034237D01*
X107944676Y-127034237D02*
X108097057Y-126996142D01*
X108097057Y-126996142D02*
X108287533Y-126996142D01*
X108287533Y-126996142D02*
X108439914Y-127034237D01*
X108439914Y-127034237D02*
X108516104Y-127072332D01*
X108516104Y-127072332D02*
X108554200Y-127110427D01*
X108554200Y-127110427D02*
X108592295Y-127186618D01*
X108592295Y-127186618D02*
X108592295Y-127262808D01*
X108592295Y-127262808D02*
X108554200Y-127338999D01*
X108554200Y-127338999D02*
X108516104Y-127377094D01*
X108516104Y-127377094D02*
X108439914Y-127415189D01*
X108439914Y-127415189D02*
X108287533Y-127453285D01*
X108287533Y-127453285D02*
X108097057Y-127453285D01*
X108097057Y-127453285D02*
X107944676Y-127415189D01*
X107944676Y-127415189D02*
X107868485Y-127377094D01*
X107868485Y-127377094D02*
X107830390Y-127338999D01*
X107830390Y-127338999D02*
X107792295Y-127262808D01*
X107868485Y-126691380D02*
X107830390Y-126653284D01*
X107830390Y-126653284D02*
X107792295Y-126577094D01*
X107792295Y-126577094D02*
X107792295Y-126386618D01*
X107792295Y-126386618D02*
X107830390Y-126310427D01*
X107830390Y-126310427D02*
X107868485Y-126272332D01*
X107868485Y-126272332D02*
X107944676Y-126234237D01*
X107944676Y-126234237D02*
X108020866Y-126234237D01*
X108020866Y-126234237D02*
X108135152Y-126272332D01*
X108135152Y-126272332D02*
X108592295Y-126729475D01*
X108592295Y-126729475D02*
X108592295Y-126234237D01*
X108592295Y-125853284D02*
X108592295Y-125700903D01*
X108592295Y-125700903D02*
X108554200Y-125624713D01*
X108554200Y-125624713D02*
X108516104Y-125586617D01*
X108516104Y-125586617D02*
X108401819Y-125510427D01*
X108401819Y-125510427D02*
X108249438Y-125472332D01*
X108249438Y-125472332D02*
X107944676Y-125472332D01*
X107944676Y-125472332D02*
X107868485Y-125510427D01*
X107868485Y-125510427D02*
X107830390Y-125548522D01*
X107830390Y-125548522D02*
X107792295Y-125624713D01*
X107792295Y-125624713D02*
X107792295Y-125777094D01*
X107792295Y-125777094D02*
X107830390Y-125853284D01*
X107830390Y-125853284D02*
X107868485Y-125891379D01*
X107868485Y-125891379D02*
X107944676Y-125929475D01*
X107944676Y-125929475D02*
X108135152Y-125929475D01*
X108135152Y-125929475D02*
X108211342Y-125891379D01*
X108211342Y-125891379D02*
X108249438Y-125853284D01*
X108249438Y-125853284D02*
X108287533Y-125777094D01*
X108287533Y-125777094D02*
X108287533Y-125624713D01*
X108287533Y-125624713D02*
X108249438Y-125548522D01*
X108249438Y-125548522D02*
X108211342Y-125510427D01*
X108211342Y-125510427D02*
X108135152Y-125472332D01*
X110332295Y-127262808D02*
X110332295Y-127186618D01*
X110332295Y-127186618D02*
X110370390Y-127110427D01*
X110370390Y-127110427D02*
X110408485Y-127072332D01*
X110408485Y-127072332D02*
X110484676Y-127034237D01*
X110484676Y-127034237D02*
X110637057Y-126996142D01*
X110637057Y-126996142D02*
X110827533Y-126996142D01*
X110827533Y-126996142D02*
X110979914Y-127034237D01*
X110979914Y-127034237D02*
X111056104Y-127072332D01*
X111056104Y-127072332D02*
X111094200Y-127110427D01*
X111094200Y-127110427D02*
X111132295Y-127186618D01*
X111132295Y-127186618D02*
X111132295Y-127262808D01*
X111132295Y-127262808D02*
X111094200Y-127338999D01*
X111094200Y-127338999D02*
X111056104Y-127377094D01*
X111056104Y-127377094D02*
X110979914Y-127415189D01*
X110979914Y-127415189D02*
X110827533Y-127453285D01*
X110827533Y-127453285D02*
X110637057Y-127453285D01*
X110637057Y-127453285D02*
X110484676Y-127415189D01*
X110484676Y-127415189D02*
X110408485Y-127377094D01*
X110408485Y-127377094D02*
X110370390Y-127338999D01*
X110370390Y-127338999D02*
X110332295Y-127262808D01*
X110332295Y-126500903D02*
X110332295Y-126424713D01*
X110332295Y-126424713D02*
X110370390Y-126348522D01*
X110370390Y-126348522D02*
X110408485Y-126310427D01*
X110408485Y-126310427D02*
X110484676Y-126272332D01*
X110484676Y-126272332D02*
X110637057Y-126234237D01*
X110637057Y-126234237D02*
X110827533Y-126234237D01*
X110827533Y-126234237D02*
X110979914Y-126272332D01*
X110979914Y-126272332D02*
X111056104Y-126310427D01*
X111056104Y-126310427D02*
X111094200Y-126348522D01*
X111094200Y-126348522D02*
X111132295Y-126424713D01*
X111132295Y-126424713D02*
X111132295Y-126500903D01*
X111132295Y-126500903D02*
X111094200Y-126577094D01*
X111094200Y-126577094D02*
X111056104Y-126615189D01*
X111056104Y-126615189D02*
X110979914Y-126653284D01*
X110979914Y-126653284D02*
X110827533Y-126691380D01*
X110827533Y-126691380D02*
X110637057Y-126691380D01*
X110637057Y-126691380D02*
X110484676Y-126653284D01*
X110484676Y-126653284D02*
X110408485Y-126615189D01*
X110408485Y-126615189D02*
X110370390Y-126577094D01*
X110370390Y-126577094D02*
X110332295Y-126500903D01*
X110408485Y-125929475D02*
X110370390Y-125891379D01*
X110370390Y-125891379D02*
X110332295Y-125815189D01*
X110332295Y-125815189D02*
X110332295Y-125624713D01*
X110332295Y-125624713D02*
X110370390Y-125548522D01*
X110370390Y-125548522D02*
X110408485Y-125510427D01*
X110408485Y-125510427D02*
X110484676Y-125472332D01*
X110484676Y-125472332D02*
X110560866Y-125472332D01*
X110560866Y-125472332D02*
X110675152Y-125510427D01*
X110675152Y-125510427D02*
X111132295Y-125967570D01*
X111132295Y-125967570D02*
X111132295Y-125472332D01*
X113672295Y-126996142D02*
X113672295Y-127453285D01*
X113672295Y-127224713D02*
X112872295Y-127224713D01*
X112872295Y-127224713D02*
X112986580Y-127300904D01*
X112986580Y-127300904D02*
X113062771Y-127377094D01*
X113062771Y-127377094D02*
X113100866Y-127453285D01*
X113672295Y-126234237D02*
X113672295Y-126691380D01*
X113672295Y-126462808D02*
X112872295Y-126462808D01*
X112872295Y-126462808D02*
X112986580Y-126538999D01*
X112986580Y-126538999D02*
X113062771Y-126615189D01*
X113062771Y-126615189D02*
X113100866Y-126691380D01*
X112872295Y-125510427D02*
X112872295Y-125891379D01*
X112872295Y-125891379D02*
X113253247Y-125929475D01*
X113253247Y-125929475D02*
X113215152Y-125891379D01*
X113215152Y-125891379D02*
X113177057Y-125815189D01*
X113177057Y-125815189D02*
X113177057Y-125624713D01*
X113177057Y-125624713D02*
X113215152Y-125548522D01*
X113215152Y-125548522D02*
X113253247Y-125510427D01*
X113253247Y-125510427D02*
X113329438Y-125472332D01*
X113329438Y-125472332D02*
X113519914Y-125472332D01*
X113519914Y-125472332D02*
X113596104Y-125510427D01*
X113596104Y-125510427D02*
X113634200Y-125548522D01*
X113634200Y-125548522D02*
X113672295Y-125624713D01*
X113672295Y-125624713D02*
X113672295Y-125815189D01*
X113672295Y-125815189D02*
X113634200Y-125891379D01*
X113634200Y-125891379D02*
X113596104Y-125929475D01*
X116212295Y-126996142D02*
X116212295Y-127453285D01*
X116212295Y-127224713D02*
X115412295Y-127224713D01*
X115412295Y-127224713D02*
X115526580Y-127300904D01*
X115526580Y-127300904D02*
X115602771Y-127377094D01*
X115602771Y-127377094D02*
X115640866Y-127453285D01*
X116212295Y-126234237D02*
X116212295Y-126691380D01*
X116212295Y-126462808D02*
X115412295Y-126462808D01*
X115412295Y-126462808D02*
X115526580Y-126538999D01*
X115526580Y-126538999D02*
X115602771Y-126615189D01*
X115602771Y-126615189D02*
X115640866Y-126691380D01*
X115412295Y-125967570D02*
X115412295Y-125472332D01*
X115412295Y-125472332D02*
X115717057Y-125738998D01*
X115717057Y-125738998D02*
X115717057Y-125624713D01*
X115717057Y-125624713D02*
X115755152Y-125548522D01*
X115755152Y-125548522D02*
X115793247Y-125510427D01*
X115793247Y-125510427D02*
X115869438Y-125472332D01*
X115869438Y-125472332D02*
X116059914Y-125472332D01*
X116059914Y-125472332D02*
X116136104Y-125510427D01*
X116136104Y-125510427D02*
X116174200Y-125548522D01*
X116174200Y-125548522D02*
X116212295Y-125624713D01*
X116212295Y-125624713D02*
X116212295Y-125853284D01*
X116212295Y-125853284D02*
X116174200Y-125929475D01*
X116174200Y-125929475D02*
X116136104Y-125967570D01*
X118752295Y-126996142D02*
X118752295Y-127453285D01*
X118752295Y-127224713D02*
X117952295Y-127224713D01*
X117952295Y-127224713D02*
X118066580Y-127300904D01*
X118066580Y-127300904D02*
X118142771Y-127377094D01*
X118142771Y-127377094D02*
X118180866Y-127453285D01*
X118752295Y-126234237D02*
X118752295Y-126691380D01*
X118752295Y-126462808D02*
X117952295Y-126462808D01*
X117952295Y-126462808D02*
X118066580Y-126538999D01*
X118066580Y-126538999D02*
X118142771Y-126615189D01*
X118142771Y-126615189D02*
X118180866Y-126691380D01*
X118752295Y-125472332D02*
X118752295Y-125929475D01*
X118752295Y-125700903D02*
X117952295Y-125700903D01*
X117952295Y-125700903D02*
X118066580Y-125777094D01*
X118066580Y-125777094D02*
X118142771Y-125853284D01*
X118142771Y-125853284D02*
X118180866Y-125929475D01*
X120492295Y-127262808D02*
X120492295Y-127186618D01*
X120492295Y-127186618D02*
X120530390Y-127110427D01*
X120530390Y-127110427D02*
X120568485Y-127072332D01*
X120568485Y-127072332D02*
X120644676Y-127034237D01*
X120644676Y-127034237D02*
X120797057Y-126996142D01*
X120797057Y-126996142D02*
X120987533Y-126996142D01*
X120987533Y-126996142D02*
X121139914Y-127034237D01*
X121139914Y-127034237D02*
X121216104Y-127072332D01*
X121216104Y-127072332D02*
X121254200Y-127110427D01*
X121254200Y-127110427D02*
X121292295Y-127186618D01*
X121292295Y-127186618D02*
X121292295Y-127262808D01*
X121292295Y-127262808D02*
X121254200Y-127338999D01*
X121254200Y-127338999D02*
X121216104Y-127377094D01*
X121216104Y-127377094D02*
X121139914Y-127415189D01*
X121139914Y-127415189D02*
X120987533Y-127453285D01*
X120987533Y-127453285D02*
X120797057Y-127453285D01*
X120797057Y-127453285D02*
X120644676Y-127415189D01*
X120644676Y-127415189D02*
X120568485Y-127377094D01*
X120568485Y-127377094D02*
X120530390Y-127338999D01*
X120530390Y-127338999D02*
X120492295Y-127262808D01*
X121292295Y-126234237D02*
X121292295Y-126691380D01*
X121292295Y-126462808D02*
X120492295Y-126462808D01*
X120492295Y-126462808D02*
X120606580Y-126538999D01*
X120606580Y-126538999D02*
X120682771Y-126615189D01*
X120682771Y-126615189D02*
X120720866Y-126691380D01*
X120492295Y-125738998D02*
X120492295Y-125662808D01*
X120492295Y-125662808D02*
X120530390Y-125586617D01*
X120530390Y-125586617D02*
X120568485Y-125548522D01*
X120568485Y-125548522D02*
X120644676Y-125510427D01*
X120644676Y-125510427D02*
X120797057Y-125472332D01*
X120797057Y-125472332D02*
X120987533Y-125472332D01*
X120987533Y-125472332D02*
X121139914Y-125510427D01*
X121139914Y-125510427D02*
X121216104Y-125548522D01*
X121216104Y-125548522D02*
X121254200Y-125586617D01*
X121254200Y-125586617D02*
X121292295Y-125662808D01*
X121292295Y-125662808D02*
X121292295Y-125738998D01*
X121292295Y-125738998D02*
X121254200Y-125815189D01*
X121254200Y-125815189D02*
X121216104Y-125853284D01*
X121216104Y-125853284D02*
X121139914Y-125891379D01*
X121139914Y-125891379D02*
X120987533Y-125929475D01*
X120987533Y-125929475D02*
X120797057Y-125929475D01*
X120797057Y-125929475D02*
X120644676Y-125891379D01*
X120644676Y-125891379D02*
X120568485Y-125853284D01*
X120568485Y-125853284D02*
X120530390Y-125815189D01*
X120530390Y-125815189D02*
X120492295Y-125738998D01*
X95092295Y-138337189D02*
X95092295Y-138260999D01*
X95092295Y-138260999D02*
X95130390Y-138184808D01*
X95130390Y-138184808D02*
X95168485Y-138146713D01*
X95168485Y-138146713D02*
X95244676Y-138108618D01*
X95244676Y-138108618D02*
X95397057Y-138070523D01*
X95397057Y-138070523D02*
X95587533Y-138070523D01*
X95587533Y-138070523D02*
X95739914Y-138108618D01*
X95739914Y-138108618D02*
X95816104Y-138146713D01*
X95816104Y-138146713D02*
X95854200Y-138184808D01*
X95854200Y-138184808D02*
X95892295Y-138260999D01*
X95892295Y-138260999D02*
X95892295Y-138337189D01*
X95892295Y-138337189D02*
X95854200Y-138413380D01*
X95854200Y-138413380D02*
X95816104Y-138451475D01*
X95816104Y-138451475D02*
X95739914Y-138489570D01*
X95739914Y-138489570D02*
X95587533Y-138527666D01*
X95587533Y-138527666D02*
X95397057Y-138527666D01*
X95397057Y-138527666D02*
X95244676Y-138489570D01*
X95244676Y-138489570D02*
X95168485Y-138451475D01*
X95168485Y-138451475D02*
X95130390Y-138413380D01*
X95130390Y-138413380D02*
X95092295Y-138337189D01*
X95092295Y-137575284D02*
X95092295Y-137499094D01*
X95092295Y-137499094D02*
X95130390Y-137422903D01*
X95130390Y-137422903D02*
X95168485Y-137384808D01*
X95168485Y-137384808D02*
X95244676Y-137346713D01*
X95244676Y-137346713D02*
X95397057Y-137308618D01*
X95397057Y-137308618D02*
X95587533Y-137308618D01*
X95587533Y-137308618D02*
X95739914Y-137346713D01*
X95739914Y-137346713D02*
X95816104Y-137384808D01*
X95816104Y-137384808D02*
X95854200Y-137422903D01*
X95854200Y-137422903D02*
X95892295Y-137499094D01*
X95892295Y-137499094D02*
X95892295Y-137575284D01*
X95892295Y-137575284D02*
X95854200Y-137651475D01*
X95854200Y-137651475D02*
X95816104Y-137689570D01*
X95816104Y-137689570D02*
X95739914Y-137727665D01*
X95739914Y-137727665D02*
X95587533Y-137765761D01*
X95587533Y-137765761D02*
X95397057Y-137765761D01*
X95397057Y-137765761D02*
X95244676Y-137727665D01*
X95244676Y-137727665D02*
X95168485Y-137689570D01*
X95168485Y-137689570D02*
X95130390Y-137651475D01*
X95130390Y-137651475D02*
X95092295Y-137575284D01*
X95092295Y-136622903D02*
X95092295Y-136775284D01*
X95092295Y-136775284D02*
X95130390Y-136851475D01*
X95130390Y-136851475D02*
X95168485Y-136889570D01*
X95168485Y-136889570D02*
X95282771Y-136965760D01*
X95282771Y-136965760D02*
X95435152Y-137003856D01*
X95435152Y-137003856D02*
X95739914Y-137003856D01*
X95739914Y-137003856D02*
X95816104Y-136965760D01*
X95816104Y-136965760D02*
X95854200Y-136927665D01*
X95854200Y-136927665D02*
X95892295Y-136851475D01*
X95892295Y-136851475D02*
X95892295Y-136699094D01*
X95892295Y-136699094D02*
X95854200Y-136622903D01*
X95854200Y-136622903D02*
X95816104Y-136584808D01*
X95816104Y-136584808D02*
X95739914Y-136546713D01*
X95739914Y-136546713D02*
X95549438Y-136546713D01*
X95549438Y-136546713D02*
X95473247Y-136584808D01*
X95473247Y-136584808D02*
X95435152Y-136622903D01*
X95435152Y-136622903D02*
X95397057Y-136699094D01*
X95397057Y-136699094D02*
X95397057Y-136851475D01*
X95397057Y-136851475D02*
X95435152Y-136927665D01*
X95435152Y-136927665D02*
X95473247Y-136965760D01*
X95473247Y-136965760D02*
X95549438Y-137003856D01*
X97562295Y-138337189D02*
X97562295Y-138260999D01*
X97562295Y-138260999D02*
X97600390Y-138184808D01*
X97600390Y-138184808D02*
X97638485Y-138146713D01*
X97638485Y-138146713D02*
X97714676Y-138108618D01*
X97714676Y-138108618D02*
X97867057Y-138070523D01*
X97867057Y-138070523D02*
X98057533Y-138070523D01*
X98057533Y-138070523D02*
X98209914Y-138108618D01*
X98209914Y-138108618D02*
X98286104Y-138146713D01*
X98286104Y-138146713D02*
X98324200Y-138184808D01*
X98324200Y-138184808D02*
X98362295Y-138260999D01*
X98362295Y-138260999D02*
X98362295Y-138337189D01*
X98362295Y-138337189D02*
X98324200Y-138413380D01*
X98324200Y-138413380D02*
X98286104Y-138451475D01*
X98286104Y-138451475D02*
X98209914Y-138489570D01*
X98209914Y-138489570D02*
X98057533Y-138527666D01*
X98057533Y-138527666D02*
X97867057Y-138527666D01*
X97867057Y-138527666D02*
X97714676Y-138489570D01*
X97714676Y-138489570D02*
X97638485Y-138451475D01*
X97638485Y-138451475D02*
X97600390Y-138413380D01*
X97600390Y-138413380D02*
X97562295Y-138337189D01*
X97562295Y-137575284D02*
X97562295Y-137499094D01*
X97562295Y-137499094D02*
X97600390Y-137422903D01*
X97600390Y-137422903D02*
X97638485Y-137384808D01*
X97638485Y-137384808D02*
X97714676Y-137346713D01*
X97714676Y-137346713D02*
X97867057Y-137308618D01*
X97867057Y-137308618D02*
X98057533Y-137308618D01*
X98057533Y-137308618D02*
X98209914Y-137346713D01*
X98209914Y-137346713D02*
X98286104Y-137384808D01*
X98286104Y-137384808D02*
X98324200Y-137422903D01*
X98324200Y-137422903D02*
X98362295Y-137499094D01*
X98362295Y-137499094D02*
X98362295Y-137575284D01*
X98362295Y-137575284D02*
X98324200Y-137651475D01*
X98324200Y-137651475D02*
X98286104Y-137689570D01*
X98286104Y-137689570D02*
X98209914Y-137727665D01*
X98209914Y-137727665D02*
X98057533Y-137765761D01*
X98057533Y-137765761D02*
X97867057Y-137765761D01*
X97867057Y-137765761D02*
X97714676Y-137727665D01*
X97714676Y-137727665D02*
X97638485Y-137689570D01*
X97638485Y-137689570D02*
X97600390Y-137651475D01*
X97600390Y-137651475D02*
X97562295Y-137575284D01*
X97905152Y-136851475D02*
X97867057Y-136927665D01*
X97867057Y-136927665D02*
X97828961Y-136965760D01*
X97828961Y-136965760D02*
X97752771Y-137003856D01*
X97752771Y-137003856D02*
X97714676Y-137003856D01*
X97714676Y-137003856D02*
X97638485Y-136965760D01*
X97638485Y-136965760D02*
X97600390Y-136927665D01*
X97600390Y-136927665D02*
X97562295Y-136851475D01*
X97562295Y-136851475D02*
X97562295Y-136699094D01*
X97562295Y-136699094D02*
X97600390Y-136622903D01*
X97600390Y-136622903D02*
X97638485Y-136584808D01*
X97638485Y-136584808D02*
X97714676Y-136546713D01*
X97714676Y-136546713D02*
X97752771Y-136546713D01*
X97752771Y-136546713D02*
X97828961Y-136584808D01*
X97828961Y-136584808D02*
X97867057Y-136622903D01*
X97867057Y-136622903D02*
X97905152Y-136699094D01*
X97905152Y-136699094D02*
X97905152Y-136851475D01*
X97905152Y-136851475D02*
X97943247Y-136927665D01*
X97943247Y-136927665D02*
X97981342Y-136965760D01*
X97981342Y-136965760D02*
X98057533Y-137003856D01*
X98057533Y-137003856D02*
X98209914Y-137003856D01*
X98209914Y-137003856D02*
X98286104Y-136965760D01*
X98286104Y-136965760D02*
X98324200Y-136927665D01*
X98324200Y-136927665D02*
X98362295Y-136851475D01*
X98362295Y-136851475D02*
X98362295Y-136699094D01*
X98362295Y-136699094D02*
X98324200Y-136622903D01*
X98324200Y-136622903D02*
X98286104Y-136584808D01*
X98286104Y-136584808D02*
X98209914Y-136546713D01*
X98209914Y-136546713D02*
X98057533Y-136546713D01*
X98057533Y-136546713D02*
X97981342Y-136584808D01*
X97981342Y-136584808D02*
X97943247Y-136622903D01*
X97943247Y-136622903D02*
X97905152Y-136699094D01*
X100210390Y-138070523D02*
X100172295Y-138146713D01*
X100172295Y-138146713D02*
X100172295Y-138260999D01*
X100172295Y-138260999D02*
X100210390Y-138375285D01*
X100210390Y-138375285D02*
X100286580Y-138451475D01*
X100286580Y-138451475D02*
X100362771Y-138489570D01*
X100362771Y-138489570D02*
X100515152Y-138527666D01*
X100515152Y-138527666D02*
X100629438Y-138527666D01*
X100629438Y-138527666D02*
X100781819Y-138489570D01*
X100781819Y-138489570D02*
X100858009Y-138451475D01*
X100858009Y-138451475D02*
X100934200Y-138375285D01*
X100934200Y-138375285D02*
X100972295Y-138260999D01*
X100972295Y-138260999D02*
X100972295Y-138184808D01*
X100972295Y-138184808D02*
X100934200Y-138070523D01*
X100934200Y-138070523D02*
X100896104Y-138032427D01*
X100896104Y-138032427D02*
X100629438Y-138032427D01*
X100629438Y-138032427D02*
X100629438Y-138184808D01*
X100972295Y-137689570D02*
X100172295Y-137689570D01*
X100172295Y-137689570D02*
X100972295Y-137232427D01*
X100972295Y-137232427D02*
X100172295Y-137232427D01*
X100972295Y-136851475D02*
X100172295Y-136851475D01*
X100172295Y-136851475D02*
X100172295Y-136660999D01*
X100172295Y-136660999D02*
X100210390Y-136546713D01*
X100210390Y-136546713D02*
X100286580Y-136470523D01*
X100286580Y-136470523D02*
X100362771Y-136432428D01*
X100362771Y-136432428D02*
X100515152Y-136394332D01*
X100515152Y-136394332D02*
X100629438Y-136394332D01*
X100629438Y-136394332D02*
X100781819Y-136432428D01*
X100781819Y-136432428D02*
X100858009Y-136470523D01*
X100858009Y-136470523D02*
X100934200Y-136546713D01*
X100934200Y-136546713D02*
X100972295Y-136660999D01*
X100972295Y-136660999D02*
X100972295Y-136851475D01*
X102750390Y-138070523D02*
X102712295Y-138146713D01*
X102712295Y-138146713D02*
X102712295Y-138260999D01*
X102712295Y-138260999D02*
X102750390Y-138375285D01*
X102750390Y-138375285D02*
X102826580Y-138451475D01*
X102826580Y-138451475D02*
X102902771Y-138489570D01*
X102902771Y-138489570D02*
X103055152Y-138527666D01*
X103055152Y-138527666D02*
X103169438Y-138527666D01*
X103169438Y-138527666D02*
X103321819Y-138489570D01*
X103321819Y-138489570D02*
X103398009Y-138451475D01*
X103398009Y-138451475D02*
X103474200Y-138375285D01*
X103474200Y-138375285D02*
X103512295Y-138260999D01*
X103512295Y-138260999D02*
X103512295Y-138184808D01*
X103512295Y-138184808D02*
X103474200Y-138070523D01*
X103474200Y-138070523D02*
X103436104Y-138032427D01*
X103436104Y-138032427D02*
X103169438Y-138032427D01*
X103169438Y-138032427D02*
X103169438Y-138184808D01*
X103512295Y-137689570D02*
X102712295Y-137689570D01*
X102712295Y-137689570D02*
X103512295Y-137232427D01*
X103512295Y-137232427D02*
X102712295Y-137232427D01*
X103512295Y-136851475D02*
X102712295Y-136851475D01*
X102712295Y-136851475D02*
X102712295Y-136660999D01*
X102712295Y-136660999D02*
X102750390Y-136546713D01*
X102750390Y-136546713D02*
X102826580Y-136470523D01*
X102826580Y-136470523D02*
X102902771Y-136432428D01*
X102902771Y-136432428D02*
X103055152Y-136394332D01*
X103055152Y-136394332D02*
X103169438Y-136394332D01*
X103169438Y-136394332D02*
X103321819Y-136432428D01*
X103321819Y-136432428D02*
X103398009Y-136470523D01*
X103398009Y-136470523D02*
X103474200Y-136546713D01*
X103474200Y-136546713D02*
X103512295Y-136660999D01*
X103512295Y-136660999D02*
X103512295Y-136851475D01*
X105262295Y-138337189D02*
X105262295Y-138260999D01*
X105262295Y-138260999D02*
X105300390Y-138184808D01*
X105300390Y-138184808D02*
X105338485Y-138146713D01*
X105338485Y-138146713D02*
X105414676Y-138108618D01*
X105414676Y-138108618D02*
X105567057Y-138070523D01*
X105567057Y-138070523D02*
X105757533Y-138070523D01*
X105757533Y-138070523D02*
X105909914Y-138108618D01*
X105909914Y-138108618D02*
X105986104Y-138146713D01*
X105986104Y-138146713D02*
X106024200Y-138184808D01*
X106024200Y-138184808D02*
X106062295Y-138260999D01*
X106062295Y-138260999D02*
X106062295Y-138337189D01*
X106062295Y-138337189D02*
X106024200Y-138413380D01*
X106024200Y-138413380D02*
X105986104Y-138451475D01*
X105986104Y-138451475D02*
X105909914Y-138489570D01*
X105909914Y-138489570D02*
X105757533Y-138527666D01*
X105757533Y-138527666D02*
X105567057Y-138527666D01*
X105567057Y-138527666D02*
X105414676Y-138489570D01*
X105414676Y-138489570D02*
X105338485Y-138451475D01*
X105338485Y-138451475D02*
X105300390Y-138413380D01*
X105300390Y-138413380D02*
X105262295Y-138337189D01*
X106062295Y-137308618D02*
X106062295Y-137765761D01*
X106062295Y-137537189D02*
X105262295Y-137537189D01*
X105262295Y-137537189D02*
X105376580Y-137613380D01*
X105376580Y-137613380D02*
X105452771Y-137689570D01*
X105452771Y-137689570D02*
X105490866Y-137765761D01*
X105262295Y-137041951D02*
X105262295Y-136508617D01*
X105262295Y-136508617D02*
X106062295Y-136851475D01*
X107862295Y-138337189D02*
X107862295Y-138260999D01*
X107862295Y-138260999D02*
X107900390Y-138184808D01*
X107900390Y-138184808D02*
X107938485Y-138146713D01*
X107938485Y-138146713D02*
X108014676Y-138108618D01*
X108014676Y-138108618D02*
X108167057Y-138070523D01*
X108167057Y-138070523D02*
X108357533Y-138070523D01*
X108357533Y-138070523D02*
X108509914Y-138108618D01*
X108509914Y-138108618D02*
X108586104Y-138146713D01*
X108586104Y-138146713D02*
X108624200Y-138184808D01*
X108624200Y-138184808D02*
X108662295Y-138260999D01*
X108662295Y-138260999D02*
X108662295Y-138337189D01*
X108662295Y-138337189D02*
X108624200Y-138413380D01*
X108624200Y-138413380D02*
X108586104Y-138451475D01*
X108586104Y-138451475D02*
X108509914Y-138489570D01*
X108509914Y-138489570D02*
X108357533Y-138527666D01*
X108357533Y-138527666D02*
X108167057Y-138527666D01*
X108167057Y-138527666D02*
X108014676Y-138489570D01*
X108014676Y-138489570D02*
X107938485Y-138451475D01*
X107938485Y-138451475D02*
X107900390Y-138413380D01*
X107900390Y-138413380D02*
X107862295Y-138337189D01*
X107938485Y-137765761D02*
X107900390Y-137727665D01*
X107900390Y-137727665D02*
X107862295Y-137651475D01*
X107862295Y-137651475D02*
X107862295Y-137460999D01*
X107862295Y-137460999D02*
X107900390Y-137384808D01*
X107900390Y-137384808D02*
X107938485Y-137346713D01*
X107938485Y-137346713D02*
X108014676Y-137308618D01*
X108014676Y-137308618D02*
X108090866Y-137308618D01*
X108090866Y-137308618D02*
X108205152Y-137346713D01*
X108205152Y-137346713D02*
X108662295Y-137803856D01*
X108662295Y-137803856D02*
X108662295Y-137308618D01*
X107862295Y-136813379D02*
X107862295Y-136737189D01*
X107862295Y-136737189D02*
X107900390Y-136660998D01*
X107900390Y-136660998D02*
X107938485Y-136622903D01*
X107938485Y-136622903D02*
X108014676Y-136584808D01*
X108014676Y-136584808D02*
X108167057Y-136546713D01*
X108167057Y-136546713D02*
X108357533Y-136546713D01*
X108357533Y-136546713D02*
X108509914Y-136584808D01*
X108509914Y-136584808D02*
X108586104Y-136622903D01*
X108586104Y-136622903D02*
X108624200Y-136660998D01*
X108624200Y-136660998D02*
X108662295Y-136737189D01*
X108662295Y-136737189D02*
X108662295Y-136813379D01*
X108662295Y-136813379D02*
X108624200Y-136889570D01*
X108624200Y-136889570D02*
X108586104Y-136927665D01*
X108586104Y-136927665D02*
X108509914Y-136965760D01*
X108509914Y-136965760D02*
X108357533Y-137003856D01*
X108357533Y-137003856D02*
X108167057Y-137003856D01*
X108167057Y-137003856D02*
X108014676Y-136965760D01*
X108014676Y-136965760D02*
X107938485Y-136927665D01*
X107938485Y-136927665D02*
X107900390Y-136889570D01*
X107900390Y-136889570D02*
X107862295Y-136813379D01*
X110362295Y-138337189D02*
X110362295Y-138260999D01*
X110362295Y-138260999D02*
X110400390Y-138184808D01*
X110400390Y-138184808D02*
X110438485Y-138146713D01*
X110438485Y-138146713D02*
X110514676Y-138108618D01*
X110514676Y-138108618D02*
X110667057Y-138070523D01*
X110667057Y-138070523D02*
X110857533Y-138070523D01*
X110857533Y-138070523D02*
X111009914Y-138108618D01*
X111009914Y-138108618D02*
X111086104Y-138146713D01*
X111086104Y-138146713D02*
X111124200Y-138184808D01*
X111124200Y-138184808D02*
X111162295Y-138260999D01*
X111162295Y-138260999D02*
X111162295Y-138337189D01*
X111162295Y-138337189D02*
X111124200Y-138413380D01*
X111124200Y-138413380D02*
X111086104Y-138451475D01*
X111086104Y-138451475D02*
X111009914Y-138489570D01*
X111009914Y-138489570D02*
X110857533Y-138527666D01*
X110857533Y-138527666D02*
X110667057Y-138527666D01*
X110667057Y-138527666D02*
X110514676Y-138489570D01*
X110514676Y-138489570D02*
X110438485Y-138451475D01*
X110438485Y-138451475D02*
X110400390Y-138413380D01*
X110400390Y-138413380D02*
X110362295Y-138337189D01*
X110438485Y-137765761D02*
X110400390Y-137727665D01*
X110400390Y-137727665D02*
X110362295Y-137651475D01*
X110362295Y-137651475D02*
X110362295Y-137460999D01*
X110362295Y-137460999D02*
X110400390Y-137384808D01*
X110400390Y-137384808D02*
X110438485Y-137346713D01*
X110438485Y-137346713D02*
X110514676Y-137308618D01*
X110514676Y-137308618D02*
X110590866Y-137308618D01*
X110590866Y-137308618D02*
X110705152Y-137346713D01*
X110705152Y-137346713D02*
X111162295Y-137803856D01*
X111162295Y-137803856D02*
X111162295Y-137308618D01*
X110438485Y-137003856D02*
X110400390Y-136965760D01*
X110400390Y-136965760D02*
X110362295Y-136889570D01*
X110362295Y-136889570D02*
X110362295Y-136699094D01*
X110362295Y-136699094D02*
X110400390Y-136622903D01*
X110400390Y-136622903D02*
X110438485Y-136584808D01*
X110438485Y-136584808D02*
X110514676Y-136546713D01*
X110514676Y-136546713D02*
X110590866Y-136546713D01*
X110590866Y-136546713D02*
X110705152Y-136584808D01*
X110705152Y-136584808D02*
X111162295Y-137041951D01*
X111162295Y-137041951D02*
X111162295Y-136546713D01*
X112872295Y-138337189D02*
X112872295Y-138260999D01*
X112872295Y-138260999D02*
X112910390Y-138184808D01*
X112910390Y-138184808D02*
X112948485Y-138146713D01*
X112948485Y-138146713D02*
X113024676Y-138108618D01*
X113024676Y-138108618D02*
X113177057Y-138070523D01*
X113177057Y-138070523D02*
X113367533Y-138070523D01*
X113367533Y-138070523D02*
X113519914Y-138108618D01*
X113519914Y-138108618D02*
X113596104Y-138146713D01*
X113596104Y-138146713D02*
X113634200Y-138184808D01*
X113634200Y-138184808D02*
X113672295Y-138260999D01*
X113672295Y-138260999D02*
X113672295Y-138337189D01*
X113672295Y-138337189D02*
X113634200Y-138413380D01*
X113634200Y-138413380D02*
X113596104Y-138451475D01*
X113596104Y-138451475D02*
X113519914Y-138489570D01*
X113519914Y-138489570D02*
X113367533Y-138527666D01*
X113367533Y-138527666D02*
X113177057Y-138527666D01*
X113177057Y-138527666D02*
X113024676Y-138489570D01*
X113024676Y-138489570D02*
X112948485Y-138451475D01*
X112948485Y-138451475D02*
X112910390Y-138413380D01*
X112910390Y-138413380D02*
X112872295Y-138337189D01*
X112948485Y-137765761D02*
X112910390Y-137727665D01*
X112910390Y-137727665D02*
X112872295Y-137651475D01*
X112872295Y-137651475D02*
X112872295Y-137460999D01*
X112872295Y-137460999D02*
X112910390Y-137384808D01*
X112910390Y-137384808D02*
X112948485Y-137346713D01*
X112948485Y-137346713D02*
X113024676Y-137308618D01*
X113024676Y-137308618D02*
X113100866Y-137308618D01*
X113100866Y-137308618D02*
X113215152Y-137346713D01*
X113215152Y-137346713D02*
X113672295Y-137803856D01*
X113672295Y-137803856D02*
X113672295Y-137308618D01*
X113138961Y-136622903D02*
X113672295Y-136622903D01*
X112834200Y-136813379D02*
X113405628Y-137003856D01*
X113405628Y-137003856D02*
X113405628Y-136508617D01*
X116212295Y-138070523D02*
X116212295Y-138527666D01*
X116212295Y-138299094D02*
X115412295Y-138299094D01*
X115412295Y-138299094D02*
X115526580Y-138375285D01*
X115526580Y-138375285D02*
X115602771Y-138451475D01*
X115602771Y-138451475D02*
X115640866Y-138527666D01*
X115412295Y-137575284D02*
X115412295Y-137499094D01*
X115412295Y-137499094D02*
X115450390Y-137422903D01*
X115450390Y-137422903D02*
X115488485Y-137384808D01*
X115488485Y-137384808D02*
X115564676Y-137346713D01*
X115564676Y-137346713D02*
X115717057Y-137308618D01*
X115717057Y-137308618D02*
X115907533Y-137308618D01*
X115907533Y-137308618D02*
X116059914Y-137346713D01*
X116059914Y-137346713D02*
X116136104Y-137384808D01*
X116136104Y-137384808D02*
X116174200Y-137422903D01*
X116174200Y-137422903D02*
X116212295Y-137499094D01*
X116212295Y-137499094D02*
X116212295Y-137575284D01*
X116212295Y-137575284D02*
X116174200Y-137651475D01*
X116174200Y-137651475D02*
X116136104Y-137689570D01*
X116136104Y-137689570D02*
X116059914Y-137727665D01*
X116059914Y-137727665D02*
X115907533Y-137765761D01*
X115907533Y-137765761D02*
X115717057Y-137765761D01*
X115717057Y-137765761D02*
X115564676Y-137727665D01*
X115564676Y-137727665D02*
X115488485Y-137689570D01*
X115488485Y-137689570D02*
X115450390Y-137651475D01*
X115450390Y-137651475D02*
X115412295Y-137575284D01*
X115412295Y-136813379D02*
X115412295Y-136737189D01*
X115412295Y-136737189D02*
X115450390Y-136660998D01*
X115450390Y-136660998D02*
X115488485Y-136622903D01*
X115488485Y-136622903D02*
X115564676Y-136584808D01*
X115564676Y-136584808D02*
X115717057Y-136546713D01*
X115717057Y-136546713D02*
X115907533Y-136546713D01*
X115907533Y-136546713D02*
X116059914Y-136584808D01*
X116059914Y-136584808D02*
X116136104Y-136622903D01*
X116136104Y-136622903D02*
X116174200Y-136660998D01*
X116174200Y-136660998D02*
X116212295Y-136737189D01*
X116212295Y-136737189D02*
X116212295Y-136813379D01*
X116212295Y-136813379D02*
X116174200Y-136889570D01*
X116174200Y-136889570D02*
X116136104Y-136927665D01*
X116136104Y-136927665D02*
X116059914Y-136965760D01*
X116059914Y-136965760D02*
X115907533Y-137003856D01*
X115907533Y-137003856D02*
X115717057Y-137003856D01*
X115717057Y-137003856D02*
X115564676Y-136965760D01*
X115564676Y-136965760D02*
X115488485Y-136927665D01*
X115488485Y-136927665D02*
X115450390Y-136889570D01*
X115450390Y-136889570D02*
X115412295Y-136813379D01*
X121292295Y-138070523D02*
X121292295Y-138527666D01*
X121292295Y-138299094D02*
X120492295Y-138299094D01*
X120492295Y-138299094D02*
X120606580Y-138375285D01*
X120606580Y-138375285D02*
X120682771Y-138451475D01*
X120682771Y-138451475D02*
X120720866Y-138527666D01*
X120492295Y-137575284D02*
X120492295Y-137499094D01*
X120492295Y-137499094D02*
X120530390Y-137422903D01*
X120530390Y-137422903D02*
X120568485Y-137384808D01*
X120568485Y-137384808D02*
X120644676Y-137346713D01*
X120644676Y-137346713D02*
X120797057Y-137308618D01*
X120797057Y-137308618D02*
X120987533Y-137308618D01*
X120987533Y-137308618D02*
X121139914Y-137346713D01*
X121139914Y-137346713D02*
X121216104Y-137384808D01*
X121216104Y-137384808D02*
X121254200Y-137422903D01*
X121254200Y-137422903D02*
X121292295Y-137499094D01*
X121292295Y-137499094D02*
X121292295Y-137575284D01*
X121292295Y-137575284D02*
X121254200Y-137651475D01*
X121254200Y-137651475D02*
X121216104Y-137689570D01*
X121216104Y-137689570D02*
X121139914Y-137727665D01*
X121139914Y-137727665D02*
X120987533Y-137765761D01*
X120987533Y-137765761D02*
X120797057Y-137765761D01*
X120797057Y-137765761D02*
X120644676Y-137727665D01*
X120644676Y-137727665D02*
X120568485Y-137689570D01*
X120568485Y-137689570D02*
X120530390Y-137651475D01*
X120530390Y-137651475D02*
X120492295Y-137575284D01*
X120758961Y-136622903D02*
X121292295Y-136622903D01*
X120454200Y-136813379D02*
X121025628Y-137003856D01*
X121025628Y-137003856D02*
X121025628Y-136508617D01*
D11*
X122640328Y-136781714D02*
X123640328Y-136781714D01*
X122783185Y-136781714D02*
X122711757Y-136710285D01*
X122711757Y-136710285D02*
X122640328Y-136567428D01*
X122640328Y-136567428D02*
X122640328Y-136353142D01*
X122640328Y-136353142D02*
X122711757Y-136210285D01*
X122711757Y-136210285D02*
X122854614Y-136138857D01*
X122854614Y-136138857D02*
X123640328Y-136138857D01*
X123640328Y-135424571D02*
X122640328Y-135424571D01*
X122140328Y-135424571D02*
X122211757Y-135495999D01*
X122211757Y-135495999D02*
X122283185Y-135424571D01*
X122283185Y-135424571D02*
X122211757Y-135353142D01*
X122211757Y-135353142D02*
X122140328Y-135424571D01*
X122140328Y-135424571D02*
X122283185Y-135424571D01*
X123568900Y-134067428D02*
X123640328Y-134210285D01*
X123640328Y-134210285D02*
X123640328Y-134495999D01*
X123640328Y-134495999D02*
X123568900Y-134638856D01*
X123568900Y-134638856D02*
X123497471Y-134710285D01*
X123497471Y-134710285D02*
X123354614Y-134781713D01*
X123354614Y-134781713D02*
X122926042Y-134781713D01*
X122926042Y-134781713D02*
X122783185Y-134710285D01*
X122783185Y-134710285D02*
X122711757Y-134638856D01*
X122711757Y-134638856D02*
X122640328Y-134495999D01*
X122640328Y-134495999D02*
X122640328Y-134210285D01*
X122640328Y-134210285D02*
X122711757Y-134067428D01*
X123568900Y-132853142D02*
X123640328Y-132995999D01*
X123640328Y-132995999D02*
X123640328Y-133281714D01*
X123640328Y-133281714D02*
X123568900Y-133424571D01*
X123568900Y-133424571D02*
X123426042Y-133495999D01*
X123426042Y-133495999D02*
X122854614Y-133495999D01*
X122854614Y-133495999D02*
X122711757Y-133424571D01*
X122711757Y-133424571D02*
X122640328Y-133281714D01*
X122640328Y-133281714D02*
X122640328Y-132995999D01*
X122640328Y-132995999D02*
X122711757Y-132853142D01*
X122711757Y-132853142D02*
X122854614Y-132781714D01*
X122854614Y-132781714D02*
X122997471Y-132781714D01*
X122997471Y-132781714D02*
X123140328Y-133495999D01*
X123497471Y-132138857D02*
X123568900Y-132067428D01*
X123568900Y-132067428D02*
X123640328Y-132138857D01*
X123640328Y-132138857D02*
X123568900Y-132210285D01*
X123568900Y-132210285D02*
X123497471Y-132138857D01*
X123497471Y-132138857D02*
X123640328Y-132138857D01*
X123068900Y-132138857D02*
X122211757Y-132210285D01*
X122211757Y-132210285D02*
X122140328Y-132138857D01*
X122140328Y-132138857D02*
X122211757Y-132067428D01*
X122211757Y-132067428D02*
X123068900Y-132138857D01*
X123068900Y-132138857D02*
X122140328Y-132138857D01*
X122640328Y-131424571D02*
X123640328Y-131424571D01*
X122783185Y-131424571D02*
X122711757Y-131353142D01*
X122711757Y-131353142D02*
X122640328Y-131210285D01*
X122640328Y-131210285D02*
X122640328Y-130995999D01*
X122640328Y-130995999D02*
X122711757Y-130853142D01*
X122711757Y-130853142D02*
X122854614Y-130781714D01*
X122854614Y-130781714D02*
X123640328Y-130781714D01*
X123640328Y-129424571D02*
X122854614Y-129424571D01*
X122854614Y-129424571D02*
X122711757Y-129495999D01*
X122711757Y-129495999D02*
X122640328Y-129638856D01*
X122640328Y-129638856D02*
X122640328Y-129924571D01*
X122640328Y-129924571D02*
X122711757Y-130067428D01*
X123568900Y-129424571D02*
X123640328Y-129567428D01*
X123640328Y-129567428D02*
X123640328Y-129924571D01*
X123640328Y-129924571D02*
X123568900Y-130067428D01*
X123568900Y-130067428D02*
X123426042Y-130138856D01*
X123426042Y-130138856D02*
X123283185Y-130138856D01*
X123283185Y-130138856D02*
X123140328Y-130067428D01*
X123140328Y-130067428D02*
X123068900Y-129924571D01*
X123068900Y-129924571D02*
X123068900Y-129567428D01*
X123068900Y-129567428D02*
X122997471Y-129424571D01*
X122640328Y-128710285D02*
X123640328Y-128710285D01*
X122783185Y-128710285D02*
X122711757Y-128638856D01*
X122711757Y-128638856D02*
X122640328Y-128495999D01*
X122640328Y-128495999D02*
X122640328Y-128281713D01*
X122640328Y-128281713D02*
X122711757Y-128138856D01*
X122711757Y-128138856D02*
X122854614Y-128067428D01*
X122854614Y-128067428D02*
X123640328Y-128067428D01*
X123640328Y-127138856D02*
X123568900Y-127281713D01*
X123568900Y-127281713D02*
X123497471Y-127353142D01*
X123497471Y-127353142D02*
X123354614Y-127424570D01*
X123354614Y-127424570D02*
X122926042Y-127424570D01*
X122926042Y-127424570D02*
X122783185Y-127353142D01*
X122783185Y-127353142D02*
X122711757Y-127281713D01*
X122711757Y-127281713D02*
X122640328Y-127138856D01*
X122640328Y-127138856D02*
X122640328Y-126924570D01*
X122640328Y-126924570D02*
X122711757Y-126781713D01*
X122711757Y-126781713D02*
X122783185Y-126710285D01*
X122783185Y-126710285D02*
X122926042Y-126638856D01*
X122926042Y-126638856D02*
X123354614Y-126638856D01*
X123354614Y-126638856D02*
X123497471Y-126710285D01*
X123497471Y-126710285D02*
X123568900Y-126781713D01*
X123568900Y-126781713D02*
X123640328Y-126924570D01*
X123640328Y-126924570D02*
X123640328Y-127138856D01*
D12*
%TO.C,D1*%
X102250000Y-155000000D02*
X102750000Y-155000000D01*
X102250000Y-155400000D02*
X101650000Y-155000000D01*
X102250000Y-154600000D02*
X102250000Y-155400000D01*
X101650000Y-155000000D02*
X102250000Y-154600000D01*
X101650000Y-155000000D02*
X101650000Y-155550000D01*
X101650000Y-155000000D02*
X101650000Y-154450000D01*
X101250000Y-155000000D02*
X101650000Y-155000000D01*
%TO.C,D2*%
X102250000Y-117000000D02*
X102750000Y-117000000D01*
X102250000Y-117400000D02*
X101650000Y-117000000D01*
X102250000Y-116600000D02*
X102250000Y-117400000D01*
X101650000Y-117000000D02*
X102250000Y-116600000D01*
X101650000Y-117000000D02*
X101650000Y-117550000D01*
X101650000Y-117000000D02*
X101650000Y-116450000D01*
X101250000Y-117000000D02*
X101650000Y-117000000D01*
%TO.C,D3*%
X102250000Y-98000000D02*
X102750000Y-98000000D01*
X102250000Y-98400000D02*
X101650000Y-98000000D01*
X102250000Y-97600000D02*
X102250000Y-98400000D01*
X101650000Y-98000000D02*
X102250000Y-97600000D01*
X101650000Y-98000000D02*
X101650000Y-98550000D01*
X101650000Y-98000000D02*
X101650000Y-97450000D01*
X101250000Y-98000000D02*
X101650000Y-98000000D01*
%TO.C,D4*%
X102250000Y-79000000D02*
X102750000Y-79000000D01*
X102250000Y-79400000D02*
X101650000Y-79000000D01*
X102250000Y-78600000D02*
X102250000Y-79400000D01*
X101650000Y-79000000D02*
X102250000Y-78600000D01*
X101650000Y-79000000D02*
X101650000Y-79550000D01*
X101650000Y-79000000D02*
X101650000Y-78450000D01*
X101250000Y-79000000D02*
X101650000Y-79000000D01*
%TO.C,D5*%
X121250000Y-155000000D02*
X121750000Y-155000000D01*
X121250000Y-155400000D02*
X120650000Y-155000000D01*
X121250000Y-154600000D02*
X121250000Y-155400000D01*
X120650000Y-155000000D02*
X121250000Y-154600000D01*
X120650000Y-155000000D02*
X120650000Y-155550000D01*
X120650000Y-155000000D02*
X120650000Y-154450000D01*
X120250000Y-155000000D02*
X120650000Y-155000000D01*
%TO.C,D6*%
X121250000Y-117000000D02*
X121750000Y-117000000D01*
X121250000Y-117400000D02*
X120650000Y-117000000D01*
X121250000Y-116600000D02*
X121250000Y-117400000D01*
X120650000Y-117000000D02*
X121250000Y-116600000D01*
X120650000Y-117000000D02*
X120650000Y-117550000D01*
X120650000Y-117000000D02*
X120650000Y-116450000D01*
X120250000Y-117000000D02*
X120650000Y-117000000D01*
%TO.C,D7*%
X121250000Y-98000000D02*
X121750000Y-98000000D01*
X121250000Y-98400000D02*
X120650000Y-98000000D01*
X121250000Y-97600000D02*
X121250000Y-98400000D01*
X120650000Y-98000000D02*
X121250000Y-97600000D01*
X120650000Y-98000000D02*
X120650000Y-98550000D01*
X120650000Y-98000000D02*
X120650000Y-97450000D01*
X120250000Y-98000000D02*
X120650000Y-98000000D01*
%TO.C,D8*%
X121250000Y-79000000D02*
X121750000Y-79000000D01*
X121250000Y-79400000D02*
X120650000Y-79000000D01*
X121250000Y-78600000D02*
X121250000Y-79400000D01*
X120650000Y-79000000D02*
X121250000Y-78600000D01*
X120650000Y-79000000D02*
X120650000Y-79550000D01*
X120650000Y-79000000D02*
X120650000Y-78450000D01*
X120250000Y-79000000D02*
X120650000Y-79000000D01*
%TO.C,D9*%
X140250000Y-155000000D02*
X140750000Y-155000000D01*
X140250000Y-155400000D02*
X139650000Y-155000000D01*
X140250000Y-154600000D02*
X140250000Y-155400000D01*
X139650000Y-155000000D02*
X140250000Y-154600000D01*
X139650000Y-155000000D02*
X139650000Y-155550000D01*
X139650000Y-155000000D02*
X139650000Y-154450000D01*
X139250000Y-155000000D02*
X139650000Y-155000000D01*
%TO.C,D10*%
X140250000Y-117000000D02*
X140750000Y-117000000D01*
X140250000Y-117400000D02*
X139650000Y-117000000D01*
X140250000Y-116600000D02*
X140250000Y-117400000D01*
X139650000Y-117000000D02*
X140250000Y-116600000D01*
X139650000Y-117000000D02*
X139650000Y-117550000D01*
X139650000Y-117000000D02*
X139650000Y-116450000D01*
X139250000Y-117000000D02*
X139650000Y-117000000D01*
%TO.C,D11*%
X140250000Y-98000000D02*
X140750000Y-98000000D01*
X140250000Y-98400000D02*
X139650000Y-98000000D01*
X140250000Y-97600000D02*
X140250000Y-98400000D01*
X139650000Y-98000000D02*
X140250000Y-97600000D01*
X139650000Y-98000000D02*
X139650000Y-98550000D01*
X139650000Y-98000000D02*
X139650000Y-97450000D01*
X139250000Y-98000000D02*
X139650000Y-98000000D01*
%TO.C,D12*%
X140250000Y-79000000D02*
X140750000Y-79000000D01*
X140250000Y-79400000D02*
X139650000Y-79000000D01*
X140250000Y-78600000D02*
X140250000Y-79400000D01*
X139650000Y-79000000D02*
X140250000Y-78600000D01*
X139650000Y-79000000D02*
X139650000Y-79550000D01*
X139650000Y-79000000D02*
X139650000Y-78450000D01*
X139250000Y-79000000D02*
X139650000Y-79000000D01*
%TO.C,D13*%
X159250000Y-117000000D02*
X159750000Y-117000000D01*
X159250000Y-117400000D02*
X158650000Y-117000000D01*
X159250000Y-116600000D02*
X159250000Y-117400000D01*
X158650000Y-117000000D02*
X159250000Y-116600000D01*
X158650000Y-117000000D02*
X158650000Y-117550000D01*
X158650000Y-117000000D02*
X158650000Y-116450000D01*
X158250000Y-117000000D02*
X158650000Y-117000000D01*
%TO.C,D14*%
X159250000Y-98000000D02*
X159750000Y-98000000D01*
X159250000Y-98400000D02*
X158650000Y-98000000D01*
X159250000Y-97600000D02*
X159250000Y-98400000D01*
X158650000Y-98000000D02*
X159250000Y-97600000D01*
X158650000Y-98000000D02*
X158650000Y-98550000D01*
X158650000Y-98000000D02*
X158650000Y-97450000D01*
X158250000Y-98000000D02*
X158650000Y-98000000D01*
%TO.C,D15*%
X159250000Y-79000000D02*
X159750000Y-79000000D01*
X159250000Y-79400000D02*
X158650000Y-79000000D01*
X159250000Y-78600000D02*
X159250000Y-79400000D01*
X158650000Y-79000000D02*
X159250000Y-78600000D01*
X158650000Y-79000000D02*
X158650000Y-79550000D01*
X158650000Y-79000000D02*
X158650000Y-78450000D01*
X158250000Y-79000000D02*
X158650000Y-79000000D01*
%TO.C,D16*%
X178250000Y-117000000D02*
X178750000Y-117000000D01*
X178250000Y-117400000D02*
X177650000Y-117000000D01*
X178250000Y-116600000D02*
X178250000Y-117400000D01*
X177650000Y-117000000D02*
X178250000Y-116600000D01*
X177650000Y-117000000D02*
X177650000Y-117550000D01*
X177650000Y-117000000D02*
X177650000Y-116450000D01*
X177250000Y-117000000D02*
X177650000Y-117000000D01*
%TO.C,D17*%
X178250000Y-98000000D02*
X178750000Y-98000000D01*
X178250000Y-98400000D02*
X177650000Y-98000000D01*
X178250000Y-97600000D02*
X178250000Y-98400000D01*
X177650000Y-98000000D02*
X178250000Y-97600000D01*
X177650000Y-98000000D02*
X177650000Y-98550000D01*
X177650000Y-98000000D02*
X177650000Y-97450000D01*
X177250000Y-98000000D02*
X177650000Y-98000000D01*
%TO.C,D18*%
X178250000Y-79000000D02*
X178750000Y-79000000D01*
X178250000Y-79400000D02*
X177650000Y-79000000D01*
X178250000Y-78600000D02*
X178250000Y-79400000D01*
X177650000Y-79000000D02*
X178250000Y-78600000D01*
X177650000Y-79000000D02*
X177650000Y-79550000D01*
X177650000Y-79000000D02*
X177650000Y-78450000D01*
X177250000Y-79000000D02*
X177650000Y-79000000D01*
%TO.C,D19*%
X197250000Y-117000000D02*
X197750000Y-117000000D01*
X197250000Y-117400000D02*
X196650000Y-117000000D01*
X197250000Y-116600000D02*
X197250000Y-117400000D01*
X196650000Y-117000000D02*
X197250000Y-116600000D01*
X196650000Y-117000000D02*
X196650000Y-117550000D01*
X196650000Y-117000000D02*
X196650000Y-116450000D01*
X196250000Y-117000000D02*
X196650000Y-117000000D01*
%TO.C,D20*%
X197250000Y-98000000D02*
X197750000Y-98000000D01*
X197250000Y-98400000D02*
X196650000Y-98000000D01*
X197250000Y-97600000D02*
X197250000Y-98400000D01*
X196650000Y-98000000D02*
X197250000Y-97600000D01*
X196650000Y-98000000D02*
X196650000Y-98550000D01*
X196650000Y-98000000D02*
X196650000Y-97450000D01*
X196250000Y-98000000D02*
X196650000Y-98000000D01*
%TO.C,D21*%
X197250000Y-79000000D02*
X197750000Y-79000000D01*
X197250000Y-79400000D02*
X196650000Y-79000000D01*
X197250000Y-78600000D02*
X197250000Y-79400000D01*
X196650000Y-79000000D02*
X197250000Y-78600000D01*
X196650000Y-79000000D02*
X196650000Y-79550000D01*
X196650000Y-79000000D02*
X196650000Y-78450000D01*
X196250000Y-79000000D02*
X196650000Y-79000000D01*
D13*
%TO.C,MCU1*%
X124740000Y-123110000D02*
X91720000Y-123110000D01*
X124740000Y-140890000D02*
X124740000Y-123110000D01*
X91720000Y-140890000D02*
X124740000Y-140890000D01*
X91720000Y-123110000D02*
X91720000Y-140890000D01*
%TD*%
D14*
%TO.C,MCU1*%
X95530000Y-139620000D03*
X98070000Y-139620000D03*
X100610000Y-139620000D03*
X103150000Y-139620000D03*
X105690000Y-139620000D03*
X108230000Y-139620000D03*
X110770000Y-139620000D03*
X113310000Y-139620000D03*
X115850000Y-139620000D03*
X118390000Y-139620000D03*
X120930000Y-139620000D03*
X123470000Y-139620000D03*
X123470000Y-124380000D03*
X120930000Y-124380000D03*
X118390000Y-124380000D03*
X115850000Y-124380000D03*
X113310000Y-124380000D03*
X110770000Y-124380000D03*
X108230000Y-124380000D03*
X105690000Y-124380000D03*
X103150000Y-124380000D03*
X100610000Y-124380000D03*
X98070000Y-124380000D03*
X95530000Y-124380000D03*
%TD*%
D15*
%TO.C,*%
X138000000Y-135000000D03*
%TD*%
M02*
