%TF.GenerationSoftware,KiCad,Pcbnew,9.0.4*%
%TF.CreationDate,2025-09-30T09:08:10+02:00*%
%TF.ProjectId,right,72696768-742e-46b6-9963-61645f706362,v1.0.0*%
%TF.SameCoordinates,Original*%
%TF.FileFunction,Copper,L2,Bot*%
%TF.FilePolarity,Positive*%
%FSLAX46Y46*%
G04 Gerber Fmt 4.6, Leading zero omitted, Abs format (unit mm)*
G04 Created by KiCad (PCBNEW 9.0.4) date 2025-09-30 09:08:10*
%MOMM*%
%LPD*%
G01*
G04 APERTURE LIST*
%TA.AperFunction,SMDPad,CuDef*%
%ADD10R,2.600000X2.600000*%
%TD*%
%TA.AperFunction,SMDPad,CuDef*%
%ADD11R,0.900000X1.200000*%
%TD*%
%TA.AperFunction,ComponentPad*%
%ADD12R,1.778000X1.778000*%
%TD*%
%TA.AperFunction,ComponentPad*%
%ADD13C,1.905000*%
%TD*%
%TA.AperFunction,ComponentPad*%
%ADD14C,1.752600*%
%TD*%
%TA.AperFunction,ComponentPad*%
%ADD15R,1.700000X1.200000*%
%TD*%
%TA.AperFunction,ComponentPad*%
%ADD16O,1.700000X1.200000*%
%TD*%
%TA.AperFunction,SMDPad,CuDef*%
%ADD17R,1.000000X1.550000*%
%TD*%
%TA.AperFunction,WasherPad*%
%ADD18C,1.000000*%
%TD*%
%TA.AperFunction,SMDPad,CuDef*%
%ADD19R,1.250000X0.900000*%
%TD*%
%TA.AperFunction,SMDPad,CuDef*%
%ADD20R,0.900000X0.900000*%
%TD*%
%TA.AperFunction,Conductor*%
%ADD21C,0.250000*%
%TD*%
G04 APERTURE END LIST*
D10*
%TO.P,S1,1*%
%TO.N,P006*%
X96725000Y-144050000D03*
%TO.P,S1,2*%
%TO.N,inner_thumb*%
X108275000Y-146250000D03*
%TD*%
%TO.P,S2,1*%
%TO.N,P006*%
X96725000Y-106050000D03*
%TO.P,S2,2*%
%TO.N,inner_bottom*%
X108275000Y-108250000D03*
%TD*%
%TO.P,S3,1*%
%TO.N,P006*%
X96725000Y-87050000D03*
%TO.P,S3,2*%
%TO.N,inner_home*%
X108275000Y-89250000D03*
%TD*%
%TO.P,S4,1*%
%TO.N,P006*%
X96725000Y-68050000D03*
%TO.P,S4,2*%
%TO.N,inner_top*%
X108275000Y-70250000D03*
%TD*%
%TO.P,S5,1*%
%TO.N,P008*%
X115725000Y-144050000D03*
%TO.P,S5,2*%
%TO.N,index_thumb*%
X127275000Y-146250000D03*
%TD*%
%TO.P,S6,1*%
%TO.N,P008*%
X115725000Y-106050000D03*
%TO.P,S6,2*%
%TO.N,index_bottom*%
X127275000Y-108250000D03*
%TD*%
%TO.P,S7,1*%
%TO.N,P008*%
X115725000Y-87050000D03*
%TO.P,S7,2*%
%TO.N,index_home*%
X127275000Y-89250000D03*
%TD*%
%TO.P,S8,1*%
%TO.N,P008*%
X115725000Y-68050000D03*
%TO.P,S8,2*%
%TO.N,index_top*%
X127275000Y-70250000D03*
%TD*%
%TO.P,S9,1*%
%TO.N,P017*%
X134725000Y-144050000D03*
%TO.P,S9,2*%
%TO.N,middle_thumb*%
X146275000Y-146250000D03*
%TD*%
%TO.P,S10,1*%
%TO.N,P017*%
X134725000Y-106050000D03*
%TO.P,S10,2*%
%TO.N,middle_bottom*%
X146275000Y-108250000D03*
%TD*%
%TO.P,S11,1*%
%TO.N,P017*%
X134725000Y-87050000D03*
%TO.P,S11,2*%
%TO.N,middle_home*%
X146275000Y-89250000D03*
%TD*%
%TO.P,S12,1*%
%TO.N,P017*%
X134725000Y-68050000D03*
%TO.P,S12,2*%
%TO.N,middle_top*%
X146275000Y-70250000D03*
%TD*%
%TO.P,S13,1*%
%TO.N,P115*%
X153725000Y-106050000D03*
%TO.P,S13,2*%
%TO.N,ring_bottom*%
X165275000Y-108250000D03*
%TD*%
%TO.P,S14,1*%
%TO.N,P115*%
X153725000Y-87050000D03*
%TO.P,S14,2*%
%TO.N,ring_home*%
X165275000Y-89250000D03*
%TD*%
%TO.P,S15,1*%
%TO.N,P115*%
X153725000Y-68050000D03*
%TO.P,S15,2*%
%TO.N,ring_top*%
X165275000Y-70250000D03*
%TD*%
%TO.P,S16,1*%
%TO.N,P113*%
X172725000Y-106050000D03*
%TO.P,S16,2*%
%TO.N,pinky_bottom*%
X184275000Y-108250000D03*
%TD*%
%TO.P,S17,1*%
%TO.N,P113*%
X172725000Y-87050000D03*
%TO.P,S17,2*%
%TO.N,pinky_home*%
X184275000Y-89250000D03*
%TD*%
%TO.P,S18,1*%
%TO.N,P113*%
X172725000Y-68050000D03*
%TO.P,S18,2*%
%TO.N,pinky_top*%
X184275000Y-70250000D03*
%TD*%
%TO.P,S19,1*%
%TO.N,P111*%
X191725000Y-106050000D03*
%TO.P,S19,2*%
%TO.N,outer_bottom*%
X203275000Y-108250000D03*
%TD*%
%TO.P,S20,1*%
%TO.N,P111*%
X191725000Y-87050000D03*
%TO.P,S20,2*%
%TO.N,outer_home*%
X203275000Y-89250000D03*
%TD*%
%TO.P,S21,1*%
%TO.N,P111*%
X191725000Y-68050000D03*
%TO.P,S21,2*%
%TO.N,outer_top*%
X203275000Y-70250000D03*
%TD*%
D11*
%TO.P,D1,2*%
%TO.N,inner_thumb*%
X103650000Y-155000000D03*
%TO.P,D1,1*%
%TO.N,P106*%
X100350000Y-155000000D03*
D12*
X98190000Y-155000000D03*
D13*
%TO.P,D1,2*%
%TO.N,inner_thumb*%
X105810000Y-155000000D03*
%TD*%
D11*
%TO.P,D2,2*%
%TO.N,inner_bottom*%
X103650000Y-117000000D03*
%TO.P,D2,1*%
%TO.N,P002*%
X100350000Y-117000000D03*
D12*
X98190000Y-117000000D03*
D13*
%TO.P,D2,2*%
%TO.N,inner_bottom*%
X105810000Y-117000000D03*
%TD*%
D11*
%TO.P,D3,2*%
%TO.N,inner_home*%
X103650000Y-98000000D03*
%TO.P,D3,1*%
%TO.N,P029*%
X100350000Y-98000000D03*
D12*
X98190000Y-98000000D03*
D13*
%TO.P,D3,2*%
%TO.N,inner_home*%
X105810000Y-98000000D03*
%TD*%
D11*
%TO.P,D4,2*%
%TO.N,inner_top*%
X103650000Y-79000000D03*
%TO.P,D4,1*%
%TO.N,P031*%
X100350000Y-79000000D03*
D12*
X98190000Y-79000000D03*
D13*
%TO.P,D4,2*%
%TO.N,inner_top*%
X105810000Y-79000000D03*
%TD*%
D11*
%TO.P,D5,2*%
%TO.N,index_thumb*%
X122650000Y-155000000D03*
%TO.P,D5,1*%
%TO.N,P106*%
X119350000Y-155000000D03*
D12*
X117190000Y-155000000D03*
D13*
%TO.P,D5,2*%
%TO.N,index_thumb*%
X124810000Y-155000000D03*
%TD*%
D11*
%TO.P,D6,2*%
%TO.N,index_bottom*%
X122650000Y-117000000D03*
%TO.P,D6,1*%
%TO.N,P002*%
X119350000Y-117000000D03*
D12*
X117190000Y-117000000D03*
D13*
%TO.P,D6,2*%
%TO.N,index_bottom*%
X124810000Y-117000000D03*
%TD*%
D11*
%TO.P,D7,2*%
%TO.N,index_home*%
X122650000Y-98000000D03*
%TO.P,D7,1*%
%TO.N,P029*%
X119350000Y-98000000D03*
D12*
X117190000Y-98000000D03*
D13*
%TO.P,D7,2*%
%TO.N,index_home*%
X124810000Y-98000000D03*
%TD*%
D11*
%TO.P,D8,2*%
%TO.N,index_top*%
X122650000Y-79000000D03*
%TO.P,D8,1*%
%TO.N,P031*%
X119350000Y-79000000D03*
D12*
X117190000Y-79000000D03*
D13*
%TO.P,D8,2*%
%TO.N,index_top*%
X124810000Y-79000000D03*
%TD*%
D11*
%TO.P,D9,2*%
%TO.N,middle_thumb*%
X141650000Y-155000000D03*
%TO.P,D9,1*%
%TO.N,P106*%
X138350000Y-155000000D03*
D12*
X136190000Y-155000000D03*
D13*
%TO.P,D9,2*%
%TO.N,middle_thumb*%
X143810000Y-155000000D03*
%TD*%
D11*
%TO.P,D10,2*%
%TO.N,middle_bottom*%
X141650000Y-117000000D03*
%TO.P,D10,1*%
%TO.N,P002*%
X138350000Y-117000000D03*
D12*
X136190000Y-117000000D03*
D13*
%TO.P,D10,2*%
%TO.N,middle_bottom*%
X143810000Y-117000000D03*
%TD*%
D11*
%TO.P,D11,2*%
%TO.N,middle_home*%
X141650000Y-98000000D03*
%TO.P,D11,1*%
%TO.N,P029*%
X138350000Y-98000000D03*
D12*
X136190000Y-98000000D03*
D13*
%TO.P,D11,2*%
%TO.N,middle_home*%
X143810000Y-98000000D03*
%TD*%
D11*
%TO.P,D12,2*%
%TO.N,middle_top*%
X141650000Y-79000000D03*
%TO.P,D12,1*%
%TO.N,P031*%
X138350000Y-79000000D03*
D12*
X136190000Y-79000000D03*
D13*
%TO.P,D12,2*%
%TO.N,middle_top*%
X143810000Y-79000000D03*
%TD*%
D11*
%TO.P,D13,2*%
%TO.N,ring_bottom*%
X160650000Y-117000000D03*
%TO.P,D13,1*%
%TO.N,P002*%
X157350000Y-117000000D03*
D12*
X155190000Y-117000000D03*
D13*
%TO.P,D13,2*%
%TO.N,ring_bottom*%
X162810000Y-117000000D03*
%TD*%
D11*
%TO.P,D14,2*%
%TO.N,ring_home*%
X160650000Y-98000000D03*
%TO.P,D14,1*%
%TO.N,P029*%
X157350000Y-98000000D03*
D12*
X155190000Y-98000000D03*
D13*
%TO.P,D14,2*%
%TO.N,ring_home*%
X162810000Y-98000000D03*
%TD*%
D11*
%TO.P,D15,2*%
%TO.N,ring_top*%
X160650000Y-79000000D03*
%TO.P,D15,1*%
%TO.N,P031*%
X157350000Y-79000000D03*
D12*
X155190000Y-79000000D03*
D13*
%TO.P,D15,2*%
%TO.N,ring_top*%
X162810000Y-79000000D03*
%TD*%
D11*
%TO.P,D16,2*%
%TO.N,pinky_bottom*%
X179650000Y-117000000D03*
%TO.P,D16,1*%
%TO.N,P002*%
X176350000Y-117000000D03*
D12*
X174190000Y-117000000D03*
D13*
%TO.P,D16,2*%
%TO.N,pinky_bottom*%
X181810000Y-117000000D03*
%TD*%
D11*
%TO.P,D17,2*%
%TO.N,pinky_home*%
X179650000Y-98000000D03*
%TO.P,D17,1*%
%TO.N,P029*%
X176350000Y-98000000D03*
D12*
X174190000Y-98000000D03*
D13*
%TO.P,D17,2*%
%TO.N,pinky_home*%
X181810000Y-98000000D03*
%TD*%
D11*
%TO.P,D18,2*%
%TO.N,pinky_top*%
X179650000Y-79000000D03*
%TO.P,D18,1*%
%TO.N,P031*%
X176350000Y-79000000D03*
D12*
X174190000Y-79000000D03*
D13*
%TO.P,D18,2*%
%TO.N,pinky_top*%
X181810000Y-79000000D03*
%TD*%
D11*
%TO.P,D19,2*%
%TO.N,outer_bottom*%
X198650000Y-117000000D03*
%TO.P,D19,1*%
%TO.N,P002*%
X195350000Y-117000000D03*
D12*
X193190000Y-117000000D03*
D13*
%TO.P,D19,2*%
%TO.N,outer_bottom*%
X200810000Y-117000000D03*
%TD*%
D11*
%TO.P,D20,2*%
%TO.N,outer_home*%
X198650000Y-98000000D03*
%TO.P,D20,1*%
%TO.N,P029*%
X195350000Y-98000000D03*
D12*
X193190000Y-98000000D03*
D13*
%TO.P,D20,2*%
%TO.N,outer_home*%
X200810000Y-98000000D03*
%TD*%
D11*
%TO.P,D21,2*%
%TO.N,outer_top*%
X198650000Y-79000000D03*
%TO.P,D21,1*%
%TO.N,P031*%
X195350000Y-79000000D03*
D12*
X193190000Y-79000000D03*
D13*
%TO.P,D21,2*%
%TO.N,outer_top*%
X200810000Y-79000000D03*
%TD*%
D14*
%TO.P,MCU1,1*%
%TO.N,P006*%
X95530000Y-139620000D03*
%TO.P,MCU1,2*%
%TO.N,P008*%
X98070000Y-139620000D03*
%TO.P,MCU1,3*%
%TO.N,GND*%
X100610000Y-139620000D03*
%TO.P,MCU1,4*%
X103150000Y-139620000D03*
%TO.P,MCU1,5*%
%TO.N,P017*%
X105690000Y-139620000D03*
%TO.P,MCU1,6*%
%TO.N,P020*%
X108230000Y-139620000D03*
%TO.P,MCU1,7*%
%TO.N,P022*%
X110770000Y-139620000D03*
%TO.P,MCU1,8*%
%TO.N,P024*%
X113310000Y-139620000D03*
%TO.P,MCU1,9*%
%TO.N,P100*%
X115850000Y-139620000D03*
%TO.P,MCU1,10*%
%TO.N,P011*%
X118390000Y-139620000D03*
%TO.P,MCU1,11*%
%TO.N,P104*%
X120930000Y-139620000D03*
%TO.P,MCU1,12*%
%TO.N,P106*%
X123470000Y-139620000D03*
%TO.P,MCU1,13*%
%TO.N,P009*%
X123470000Y-124380000D03*
%TO.P,MCU1,14*%
%TO.N,P010*%
X120930000Y-124380000D03*
%TO.P,MCU1,15*%
%TO.N,P111*%
X118390000Y-124380000D03*
%TO.P,MCU1,16*%
%TO.N,P113*%
X115850000Y-124380000D03*
%TO.P,MCU1,17*%
%TO.N,P115*%
X113310000Y-124380000D03*
%TO.P,MCU1,18*%
%TO.N,P002*%
X110770000Y-124380000D03*
%TO.P,MCU1,19*%
%TO.N,P029*%
X108230000Y-124380000D03*
%TO.P,MCU1,20*%
%TO.N,P031*%
X105690000Y-124380000D03*
%TO.P,MCU1,21*%
%TO.N,VCC*%
X103150000Y-124380000D03*
%TO.P,MCU1,22*%
%TO.N,RST*%
X100610000Y-124380000D03*
%TO.P,MCU1,23*%
%TO.N,GND*%
X98070000Y-124380000D03*
%TO.P,MCU1,24*%
%TO.N,RAW*%
X95530000Y-124380000D03*
%TD*%
D15*
%TO.P,JST1,1*%
%TO.N,pos*%
X135000000Y-128000000D03*
D16*
%TO.P,JST1,2*%
%TO.N,GND*%
X135000000Y-126000000D03*
%TD*%
D17*
%TO.P,B1,1*%
%TO.N,GND*%
X146850000Y-131375000D03*
X146850000Y-136625000D03*
%TO.P,B1,2*%
%TO.N,RST*%
X145150000Y-131375000D03*
X145150000Y-136625000D03*
%TD*%
D18*
%TO.P,T1,*%
%TO.N,*%
X146000000Y-127500000D03*
X146000000Y-124500000D03*
D19*
%TO.P,T1,1*%
%TO.N,pos*%
X143925000Y-123750000D03*
%TO.P,T1,2*%
%TO.N,RAW*%
X143925000Y-126750000D03*
%TO.P,T1,3*%
%TO.N,N/C*%
X143925000Y-128250000D03*
D20*
%TO.P,T1,*%
%TO.N,*%
X147100000Y-129700000D03*
X144900000Y-129700000D03*
X144900000Y-122300000D03*
X147100000Y-122300000D03*
%TD*%
D21*
%TO.N,P002*%
X98190000Y-117000000D02*
X100350000Y-117000000D01*
%TO.N,P029*%
X98190000Y-98000000D02*
X100350000Y-98000000D01*
%TO.N,P031*%
X98190000Y-79000000D02*
X100350000Y-79000000D01*
X117190000Y-79000000D02*
X119350000Y-79000000D01*
%TO.N,P029*%
X117190000Y-98000000D02*
X119350000Y-98000000D01*
%TO.N,P002*%
X117190000Y-117000000D02*
X119350000Y-117000000D01*
X136190000Y-117000000D02*
X138350000Y-117000000D01*
%TO.N,P029*%
X136190000Y-98000000D02*
X138350000Y-98000000D01*
%TO.N,P031*%
X136190000Y-79000000D02*
X138350000Y-79000000D01*
X155190000Y-79000000D02*
X157350000Y-79000000D01*
%TO.N,P029*%
X155190000Y-98000000D02*
X157350000Y-98000000D01*
%TO.N,P002*%
X155190000Y-117000000D02*
X157350000Y-117000000D01*
X174190000Y-117000000D02*
X176350000Y-117000000D01*
%TO.N,P029*%
X176350000Y-98000000D02*
X174190000Y-98000000D01*
%TO.N,P031*%
X176350000Y-79000000D02*
X174190000Y-79000000D01*
X195350000Y-79000000D02*
X193190000Y-79000000D01*
%TO.N,P029*%
X195350000Y-98000000D02*
X193190000Y-98000000D01*
%TO.N,P002*%
X195350000Y-117000000D02*
X193190000Y-117000000D01*
%TO.N,P106*%
X138350000Y-155000000D02*
X136190000Y-155000000D01*
X119350000Y-155000000D02*
X117190000Y-155000000D01*
X100350000Y-155000000D02*
X98190000Y-155000000D01*
%TO.N,pinky_bottom*%
X181810000Y-117000000D02*
X179650000Y-117000000D01*
X184275000Y-108250000D02*
X184275000Y-114535000D01*
X184275000Y-114535000D02*
X181810000Y-117000000D01*
%TO.N,outer_bottom*%
X200810000Y-117000000D02*
X198650000Y-117000000D01*
X203275000Y-108250000D02*
X203275000Y-114535000D01*
X203275000Y-114535000D02*
X200810000Y-117000000D01*
%TO.N,outer_home*%
X200810000Y-98000000D02*
X198650000Y-98000000D01*
%TO.N,outer_top*%
X200810000Y-79000000D02*
X198650000Y-79000000D01*
X203275000Y-70250000D02*
X203275000Y-76535000D01*
X203275000Y-76535000D02*
X200810000Y-79000000D01*
%TO.N,outer_home*%
X203275000Y-89250000D02*
X203275000Y-95535000D01*
X203275000Y-95535000D02*
X200810000Y-98000000D01*
%TO.N,P111*%
X191725000Y-87050000D02*
X191725000Y-106050000D01*
X191725000Y-68050000D02*
X191725000Y-87050000D01*
%TO.N,pinky_top*%
X181810000Y-79000000D02*
X179650000Y-79000000D01*
X184275000Y-70250000D02*
X184275000Y-76535000D01*
X184275000Y-76535000D02*
X181810000Y-79000000D01*
%TO.N,pinky_home*%
X181810000Y-98000000D02*
X179650000Y-98000000D01*
X184275000Y-89250000D02*
X184275000Y-95535000D01*
X184275000Y-95535000D02*
X181810000Y-98000000D01*
%TO.N,P113*%
X172725000Y-87050000D02*
X172725000Y-106050000D01*
X172725000Y-68050000D02*
X172725000Y-87050000D01*
%TO.N,ring_bottom*%
X162810000Y-117000000D02*
X160650000Y-117000000D01*
X165275000Y-108250000D02*
X165275000Y-114535000D01*
X165275000Y-114535000D02*
X162810000Y-117000000D01*
%TO.N,ring_home*%
X162810000Y-98000000D02*
X160650000Y-98000000D01*
%TO.N,ring_top*%
X162810000Y-79000000D02*
X160650000Y-79000000D01*
X165275000Y-70250000D02*
X165275000Y-76535000D01*
X165275000Y-76535000D02*
X162810000Y-79000000D01*
%TO.N,ring_home*%
X165275000Y-89250000D02*
X165275000Y-95535000D01*
X165275000Y-95535000D02*
X162810000Y-98000000D01*
%TO.N,P115*%
X153725000Y-87050000D02*
X153725000Y-106050000D01*
X153725000Y-68050000D02*
X153725000Y-87050000D01*
%TO.N,middle_bottom*%
X143810000Y-117000000D02*
X141650000Y-117000000D01*
X146275000Y-108250000D02*
X146275000Y-114535000D01*
X146275000Y-114535000D02*
X143810000Y-117000000D01*
%TO.N,middle_home*%
X143810000Y-98000000D02*
X141650000Y-98000000D01*
X146275000Y-89250000D02*
X146275000Y-95535000D01*
X146275000Y-95535000D02*
X143810000Y-98000000D01*
%TO.N,middle_top*%
X143810000Y-79000000D02*
X141650000Y-79000000D01*
X146275000Y-70250000D02*
X146275000Y-76535000D01*
X146275000Y-76535000D02*
X143810000Y-79000000D01*
%TO.N,P017*%
X134725000Y-68050000D02*
X134725000Y-87050000D01*
X134725000Y-87050000D02*
X134725000Y-106050000D01*
%TO.N,index_bottom*%
X124810000Y-117000000D02*
X122650000Y-117000000D01*
X127275000Y-108250000D02*
X127275000Y-114535000D01*
X127275000Y-114535000D02*
X124810000Y-117000000D01*
%TO.N,index_home*%
X127275000Y-89250000D02*
X127275000Y-95535000D01*
X127275000Y-95535000D02*
X124810000Y-98000000D01*
%TO.N,index_top*%
X124810000Y-79000000D02*
X122650000Y-79000000D01*
X127275000Y-70250000D02*
X127275000Y-76535000D01*
X127275000Y-76535000D02*
X124810000Y-79000000D01*
%TO.N,P008*%
X115725000Y-68050000D02*
X115725000Y-87050000D01*
X115725000Y-87050000D02*
X115725000Y-106050000D01*
%TO.N,inner_bottom*%
X105810000Y-117000000D02*
X103650000Y-117000000D01*
X108275000Y-108250000D02*
X108275000Y-114535000D01*
X108275000Y-114535000D02*
X105810000Y-117000000D01*
%TO.N,inner_home*%
X105810000Y-98000000D02*
X103650000Y-98000000D01*
X108275000Y-89250000D02*
X108275000Y-95535000D01*
X108275000Y-95535000D02*
X105810000Y-98000000D01*
%TO.N,inner_top*%
X105810000Y-79000000D02*
X103650000Y-79000000D01*
X108275000Y-70250000D02*
X108275000Y-76535000D01*
X108275000Y-76535000D02*
X105810000Y-79000000D01*
%TO.N,P006*%
X96725000Y-87050000D02*
X96725000Y-68050000D01*
X96725000Y-106050000D02*
X96725000Y-87050000D01*
%TO.N,inner_thumb*%
X105810000Y-155000000D02*
X103650000Y-155000000D01*
X108275000Y-146250000D02*
X108275000Y-152535000D01*
X108275000Y-152535000D02*
X105810000Y-155000000D01*
%TO.N,middle_thumb*%
X143810000Y-155000000D02*
X141650000Y-155000000D01*
X146275000Y-146250000D02*
X146275000Y-152535000D01*
X146275000Y-152535000D02*
X143810000Y-155000000D01*
%TO.N,index_thumb*%
X124810000Y-155000000D02*
X122650000Y-155000000D01*
X127275000Y-146250000D02*
X127275000Y-152535000D01*
X127275000Y-152535000D02*
X124810000Y-155000000D01*
%TO.N,RST*%
X145150000Y-131375000D02*
X96875000Y-131375000D01*
X96875000Y-131375000D02*
X91554000Y-126054000D01*
X91554000Y-126054000D02*
X91554000Y-122083810D01*
X91554000Y-122083810D02*
X91784810Y-121853000D01*
X91784810Y-121853000D02*
X98083000Y-121853000D01*
X98083000Y-121853000D02*
X100610000Y-124380000D01*
%TO.N,RAW*%
X143925000Y-126750000D02*
X143750000Y-126750000D01*
X143750000Y-126750000D02*
X141574000Y-128926000D01*
X100076000Y-128926000D02*
X95530000Y-124380000D01*
X141574000Y-128926000D02*
X100076000Y-128926000D01*
%TO.N,pos*%
X135000000Y-128000000D02*
X133824000Y-126824000D01*
X133824000Y-126824000D02*
X133824000Y-125616438D01*
X133824000Y-125616438D02*
X135690438Y-123750000D01*
X135690438Y-123750000D02*
X143925000Y-123750000D01*
%TO.N,RST*%
X145150000Y-131375000D02*
X145376000Y-131601000D01*
X145376000Y-131601000D02*
X145376000Y-136399000D01*
X145376000Y-136399000D02*
X145150000Y-136625000D01*
%TO.N,GND*%
X146850000Y-131375000D02*
X146624000Y-131601000D01*
X146624000Y-131601000D02*
X146624000Y-136399000D01*
X146624000Y-136399000D02*
X146850000Y-136625000D01*
X135000000Y-126000000D02*
X135850000Y-125150000D01*
X146324000Y-129572000D02*
X146324000Y-130849000D01*
X135850000Y-125150000D02*
X144052000Y-125150000D01*
X144052000Y-125150000D02*
X145000000Y-126098000D01*
X145000000Y-126098000D02*
X145000000Y-128248000D01*
X145000000Y-128248000D02*
X146324000Y-129572000D01*
X146324000Y-130849000D02*
X146850000Y-131375000D01*
%TO.N,P111*%
X191725000Y-106050000D02*
X191725000Y-120275000D01*
X191725000Y-120275000D02*
X190960190Y-121039810D01*
X118390000Y-124380000D02*
X118390000Y-123110000D01*
X118390000Y-123110000D02*
X118745000Y-122755000D01*
X118745000Y-122755000D02*
X134158430Y-122755000D01*
X134158430Y-122755000D02*
X135873620Y-121039810D01*
X135873620Y-121039810D02*
X190960190Y-121039810D01*
%TO.N,P113*%
X115850000Y-122954000D02*
X116500000Y-122304000D01*
X115850000Y-124380000D02*
X115850000Y-122954000D01*
X133971620Y-122304000D02*
X135686810Y-120588810D01*
X116500000Y-122304000D02*
X133971620Y-122304000D01*
X135686810Y-120588810D02*
X171911190Y-120588810D01*
X171911190Y-120588810D02*
X172725000Y-119775000D01*
%TO.N,P115*%
X113310000Y-122043000D02*
X113500000Y-121853000D01*
X113500000Y-121853000D02*
X133784810Y-121853000D01*
X113310000Y-124380000D02*
X113310000Y-122043000D01*
X133784810Y-121853000D02*
X135500000Y-120137810D01*
X135500000Y-120137810D02*
X152862190Y-120137810D01*
X152862190Y-120137810D02*
X153725000Y-119275000D01*
X153725000Y-119275000D02*
X153725000Y-106050000D01*
%TO.N,P017*%
X105690000Y-139620000D02*
X102345095Y-136275095D01*
X91103000Y-133917380D02*
X91103000Y-121897000D01*
X93460715Y-136275095D02*
X91103000Y-133917380D01*
X91103000Y-121897000D02*
X91598000Y-121402000D01*
X102345095Y-136275095D02*
X93460715Y-136275095D01*
X134725000Y-120275000D02*
X134725000Y-106050000D01*
X91598000Y-121402000D02*
X133598000Y-121402000D01*
X133598000Y-121402000D02*
X134725000Y-120275000D01*
%TO.N,P008*%
X98070000Y-139620000D02*
X95176095Y-136726095D01*
X115049000Y-120951000D02*
X115725000Y-120275000D01*
X95176095Y-136726095D02*
X93273905Y-136726095D01*
X93273905Y-136726095D02*
X90652000Y-134104190D01*
X90652000Y-134104190D02*
X90652000Y-121485810D01*
X90652000Y-121485810D02*
X91186810Y-120951000D01*
X91186810Y-120951000D02*
X115049000Y-120951000D01*
X115725000Y-120275000D02*
X115725000Y-106050000D01*
%TO.N,P006*%
X96725000Y-119775000D02*
X96000000Y-120500000D01*
X96000000Y-120500000D02*
X91000000Y-120500000D01*
X90201000Y-134291000D02*
X95530000Y-139620000D01*
X91000000Y-120500000D02*
X90201000Y-121299000D01*
X90201000Y-121299000D02*
X90201000Y-134291000D01*
X96725000Y-106050000D02*
X96725000Y-119775000D01*
%TO.N,P113*%
X172725000Y-106050000D02*
X172725000Y-119775000D01*
%TO.N,P115*%
X153725000Y-106050000D02*
X153000000Y-106775000D01*
%TO.N,P017*%
X105690000Y-139620000D02*
X107119000Y-141049000D01*
X107119000Y-141049000D02*
X131724000Y-141049000D01*
X131724000Y-141049000D02*
X134725000Y-144050000D01*
%TO.N,P008*%
X98070000Y-139620000D02*
X99950000Y-141500000D01*
X99950000Y-141500000D02*
X113175000Y-141500000D01*
X113175000Y-141500000D02*
X115725000Y-144050000D01*
%TO.N,P006*%
X95530000Y-139620000D02*
X95530000Y-142855000D01*
X95530000Y-142855000D02*
X96725000Y-144050000D01*
%TO.N,index_home*%
X124810000Y-98000000D02*
X122650000Y-98000000D01*
%TD*%
M02*
